<?xml version="1.0" standalone="no"?>
<!DOCTYPE svg PUBLIC "-//W3C//DTD SVG 1.1//EN" "http://www.w3.org/Graphics/SVG/1.1/DTD/svg11.dtd" >
<svg xmlns="http://www.w3.org/2000/svg">
<metadata>Generated by IcoMoon</metadata>
<defs>
<font id="icomoon" horiz-adv-x="1024">
<font-face units-per-em="1024" ascent="960" descent="-64" />
<missing-glyph horiz-adv-x="1024" />
<glyph unicode="&#x20;" horiz-adv-x="512" d="" />
<glyph unicode="&#xe900;" glyph-name="arrow-down" d="M512 398.037l211.2 211.2 60.331-60.373-271.531-271.531-271.531 271.531 60.331 60.331z" />
<glyph unicode="&#xe901;" glyph-name="arrow-large" d="M271.653-63.192c-8.685 0-17.573 3.432-24.238 10.097-13.33 13.33-13.33 35.144 0 48.474l456.255 456.458-449.59 449.59c-13.33 13.331-13.33 35.145 0 48.475s35.143 13.33 48.473 0l473.827-473.827c13.33-13.33 13.33-35.143 0-48.473l-480.492-480.694c-6.665-6.665-15.551-10.099-24.236-10.099z" />
<glyph unicode="&#xe902;" glyph-name="arrow-long" d="M713.387 630.613c5.789 5.782 13.784 9.359 22.613 9.359s16.824-3.576 22.614-9.359v0l160-160c5.782-5.789 9.359-13.784 9.359-22.613s-3.576-16.824-9.359-22.614v0l-160-160c-5.858-6.274-14.178-10.185-23.412-10.185-17.673 0-32 14.327-32 32 0 9.234 3.911 17.554 10.166 23.394l0.019 0.017 105.387 105.387h-690.773c-17.673 0-32 14.327-32 32s14.327 32 32 32v0h690.773l-105.387 105.387c-5.782 5.789-9.359 13.784-9.359 22.613s3.576 16.824 9.359 22.614v0z" />
<glyph unicode="&#xe903;" glyph-name="arrow-right" d="M663.040 478.293l-241.493 241.067c-7.733 7.795-18.45 12.621-30.293 12.621s-22.56-4.826-30.291-12.618l-0.003-0.003c-7.668-7.712-12.407-18.343-12.407-30.080s4.74-22.368 12.409-30.082l-0.002 0.002 211.2-213.333-211.2-211.2c-7.668-7.712-12.407-18.343-12.407-30.080s4.74-22.368 12.409-30.082l-0.002 0.002c7.709-7.861 18.426-12.749 30.284-12.8h0.010c11.868 0.051 22.584 4.939 30.287 12.793l0.007 0.007 241.493 241.067c8.458 7.82 13.736 18.974 13.736 31.36s-5.278 23.54-13.707 31.334l-0.028 0.026z" />
<glyph unicode="&#xe904;" glyph-name="close" d="M512 388.267l-209.067-209.067q-11.733-11.733-29.867-11.733t-29.867 11.733-11.733 29.867 11.733 29.867l209.067 209.067-209.067 209.067q-11.733 11.733-11.733 29.867t11.733 29.867 29.867 11.733 29.867-11.733l209.067-209.067 209.067 209.067q11.733 11.733 29.867 11.733t29.867-11.733 11.733-29.867-11.733-29.867l-209.067-209.067 209.067-209.067q11.733-11.733 11.733-29.867t-11.733-29.867-29.867-11.733-29.867 11.733z" />
<glyph unicode="&#xe905;" glyph-name="email" d="M938.65 832c47.104 0 85.35-38.195 85.35-85.35v-597.299c0-47.104-38.195-85.35-85.35-85.35h-853.299c-47.104 0-85.35 38.195-85.35 85.35v597.299c0 47.104 38.195 85.35 85.35 85.35zM367.002 380.006l-251.392-248.422h784.64l-248.678 245.862-139.571-96.614zM954.368 586.65l-245.555-169.779 245.555-242.483zM69.683 583.526v-401.203l239.923 237.107zM937.83 764.365h-850.893c-0.246 0.012-0.534 0.018-0.823 0.018-4.584 0-8.777-1.673-12.001-4.442l0.025 0.021c-2.725-2.448-4.431-5.983-4.431-9.917 0-0.511 0.029-1.015 0.085-1.511l-0.006 0.061v-82.944l442.214-302.438 442.573 305.408v76.39q0.051 10.24-4.71 14.95c-2.774 2.749-6.594 4.448-10.81 4.448-0.412 0-0.82-0.016-1.224-0.048l0.053 0.003z" />
<glyph unicode="&#xe906;" glyph-name="favorite" d="M718.4 768c0.044 0 0.096 0 0.148 0 48.936 0 93.181-20.081 124.945-52.453l0.027-0.027c32.429-32.908 52.455-78.115 52.455-128s-20.026-95.092-52.477-128.022l0.022 0.022-331.52-335.68-331.52 335.68c-32.429 32.908-52.455 78.115-52.455 128s20.026 95.092 52.477 128.022l-0.022-0.022c31.842 32.409 76.135 52.494 125.12 52.494s93.278-20.085 125.095-52.468l0.025-0.026 81.28-83.2 80.96 82.56c31.697 32.774 76.067 53.12 125.19 53.12 0.088 0 0.176 0 0.263 0h-0.014zM718.4 832c-0.060 0-0.131 0-0.203 0-66.834 0-127.261-27.428-170.64-71.642l-0.037-0.038-35.52-35.84-35.52 35.84c-43.509 44.216-103.995 71.613-170.88 71.613s-127.371-27.397-170.849-71.581l-0.031-0.032c-43.78-44.544-70.807-105.676-70.807-173.12s27.027-128.576 70.841-173.155l-0.035 0.035 377.28-382.080 377.28 382.080c43.78 44.544 70.807 105.676 70.807 173.12s-27.027 128.576-70.841 173.155l0.035-0.035c-43.518 44.211-103.992 71.622-170.869 71.68h-0.011z" />
<glyph unicode="&#xe907;" glyph-name="gallery" d="M896 234.667h85.333v597.333h-682.667v-85.333h597.333zM725.333 149.333h-597.333v426.667h597.333zM42.667 661.333v-597.333h768v597.333zM640 426.667v0c0 35.346-28.654 64-64 64s-64-28.654-64-64v0c0-35.346 28.654-64 64-64s64 28.654 64 64zM315.733 327.339l-178.005-178.005h-9.728v110.933l187.733 187.733 298.667-298.667h-120.747z" />
<glyph unicode="&#xe908;" glyph-name="headset" d="M512 960q53 0 102-13.5t91.5-39 78-60 60-77.5 38.5-92 14-102v-224q0-20-7.5-37.5t-20.5-30.5-30.5-20.5-37.5-7.5h-96v320h96q8.5 0 16.5-1.5t15.5-4.5q0 67.5-24.5 126.5t-67 103.5-101.5 70-127 26q-44 0-85-11.5t-76.5-32-64.5-50-50-65-32.5-76.5-11.5-85v-6q7.5 2.5 15.5 4t16.5 2h96v-320h-64v-64q0-26.5 10-49.5t27.5-41 40.5-27.5 50-10q0 13.5 5 25t13.5 20 20.5 14 25 5h128q13.5 0 25-5t20-13.5 14-20.5 5-25v-64q0-13.5-5-25t-13.5-20-20.5-14-25-5h-128q-13.5 0-25 5t-20 13.5-14 20.5-5 25q-40 0-74.5 15t-61 41-41.5 61-15 75v70q-14.5 5-26 14t-20 20.5-13 26-5 29.5v224q0 53 13.5 102t39 91.5 60 78 77.5 60 92 38.5 102 14zM448 0h128v64h-128zM224 512q-13 0-22.5-9.5t-9.5-22.5v-128q0-13 9.5-22.5t22.5-9.5h32v192zM832 480q0 13-9.5 22.5t-22.5 9.5h-32v-192h32q13 0 22.5 9.5t9.5 22.5z" />
<glyph unicode="&#xe909;" glyph-name="info" d="M512 960c282.778 0 512-229.222 512-512s-229.222-512-512-512-512 229.222-512 512 229.222 512 512 512zM512 888.576c-243.323 0-440.576-197.253-440.576-440.576s197.253-440.576 440.576-440.576v0c243.323 0 440.576 197.253 440.576 440.576s-197.253 440.576-440.576 440.576v0zM504.576 590.848c19.712 0 35.686-16.026 35.686-35.738v-386.97c-0.748-19.147-16.45-34.385-35.712-34.385s-34.964 15.238-35.71 34.317l-0.002 0.068v387.021c0 19.712 15.974 35.738 35.738 35.738zM506.010 733.747c26.298 0 47.616-21.318 47.616-47.616s-21.318-47.616-47.616-47.616v0c-26.298 0-47.616 21.318-47.616 47.616s21.318 47.616 47.616 47.616v0z" />
<glyph unicode="&#xe90a;" glyph-name="language" d="M512 64q-79.275 0-149.333 30.293-70.059 30.336-122.027 82.347t-82.347 122.027-30.293 149.333q0 79.531 30.293 149.461 30.336 69.973 82.347 121.899t122.027 82.347q70.059 30.293 149.333 30.293 79.531 0 149.461-30.293 69.973-30.336 121.941-82.347t82.304-121.899q30.293-69.973 30.293-149.461 0-79.275-30.293-149.333-30.336-70.059-82.347-122.027t-121.899-82.347-149.461-30.293zM512 106.325q37.547 48.256 61.952 94.763 24.363 46.507 39.637 104.107h-203.179q16.939-60.843 40.448-107.349 23.552-46.507 61.141-91.52zM457.685 112.725q-29.867 35.2-54.528 87.040-24.661 51.797-36.693 105.472h-163.627q36.693-79.573 103.979-130.56 67.328-50.944 150.869-61.952zM566.315 112.725q83.541 11.008 150.869 61.952 67.285 50.987 103.979 130.56h-163.584q-16.213-54.485-40.832-106.283-24.661-51.84-50.432-86.187zM185.429 347.861h172.16q-4.864 26.283-6.827 51.2-2.048 24.875-2.048 48.939t2.005 48.939 6.827 51.2h-172.075q-6.955-22.187-10.88-48.341-3.925-26.112-3.925-51.797t3.883-51.84 10.88-48.256zM400.256 347.904h223.488q4.864 26.24 6.827 50.347 2.048 24.064 2.048 49.749t-2.005 49.749-6.827 50.347h-223.573q-4.821-26.24-6.827-50.347-2.005-24.064-2.005-49.749t2.005-49.749 6.827-50.347zM666.453 347.904h172.117q6.955 22.144 10.88 48.256 3.883 26.155 3.883 51.84t-3.883 51.84-10.88 48.256h-172.16q4.864-26.24 6.827-51.157 2.048-24.917 2.048-48.939t-2.005-48.939-6.827-51.2zM657.579 590.763h163.584q-37.504 81.237-102.741 130.56t-152.107 62.763q29.867-39.296 53.717-89.899 23.851-50.56 37.547-103.424zM410.411 590.763h203.179q-16.896 60.075-41.685 108.629t-59.904 90.283q-35.115-41.685-59.904-90.283t-41.643-108.629zM202.88 590.763h163.584q13.696 52.821 37.547 103.424t53.717 89.899q-87.637-13.483-152.491-63.147-64.853-49.749-102.4-130.133z" />
<glyph unicode="&#xe90b;" glyph-name="linkedin" d="M296.107 746.667c-0.024-47.11-38.22-85.291-85.333-85.291-47.128 0-85.333 38.205-85.333 85.333 0 0.015 0 0.030 0 0.045v-0.002c0.024 47.11 38.22 85.291 85.333 85.291 47.128 0 85.333-38.205 85.333-85.333 0-0.015 0-0.030 0-0.045v0.002zM298.667 598.187h-170.667v-534.187h170.667zM568.32 598.187h-169.813v-534.187h168.107v280.32c0 156.16 203.52 170.667 203.52 0v-280.32h168.533v338.347c0 263.253-301.227 253.44-372.053 124.16z" />
<glyph unicode="&#xe90c;" glyph-name="location" d="M309.333 533.333c0 111.93 90.737 202.667 202.667 202.667s202.667-90.737 202.667-202.667v0c0-111.93-90.737-202.667-202.667-202.667s-202.667 90.737-202.667 202.667v0zM512 672c-76.583 0-138.667-62.083-138.667-138.667s62.083-138.667 138.667-138.667v0c76.583 0 138.667 62.083 138.667 138.667s-62.083 138.667-138.667 138.667v0zM150.357 582.101c15.528 182.373 167.371 324.524 352.423 324.565h18.436c185.057-0.042 336.899-142.193 352.337-323.258l0.090-1.307c0.824-9.399 1.293-20.335 1.293-31.381 0-91.953-32.537-176.306-86.726-242.175l0.527 0.66-204.501-250.069c-17.243-20.971-43.189-34.242-72.235-34.242s-54.992 13.271-72.106 34.080l-0.129 0.162-204.501 250.069c-53.663 65.209-86.2 149.563-86.2 241.515 0 11.046 0.47 21.982 1.39 32.79l-0.097-1.409zM502.784 842.667c-151.538-0.066-275.868-116.471-288.524-264.741l-0.074-1.072c-0.686-7.825-1.077-16.93-1.077-26.127 0-76.522 27.076-146.721 72.171-201.537l-0.438 0.549 204.501-250.112c5.417-6.593 13.57-10.766 22.699-10.766s17.282 4.173 22.658 10.715l0.041 0.051 204.501 250.112c44.61 54.252 71.655 124.414 71.655 200.893 0 9.23-0.394 18.368-1.166 27.398l0.081-1.176c-12.73 149.357-137.083 265.77-288.635 265.813h-0.005z" />
<glyph unicode="&#xe90d;" glyph-name="magnify" d="M460.8 652.8c21.208 0 38.4-17.192 38.4-38.4v0-76.8h76.8c21.208 0 38.4-17.192 38.4-38.4s-17.192-38.4-38.4-38.4v0h-76.8v-76.8c0-21.208-17.192-38.4-38.4-38.4s-38.4 17.192-38.4 38.4v0 76.8h-76.8c-21.208 0-38.4 17.192-38.4 38.4s17.192 38.4 38.4 38.4v0h76.8v76.8c0 21.208 17.192 38.4 38.4 38.4v0zM102.4 499.2c0.017 197.926 160.472 358.37 358.4 358.37 197.939 0 358.4-160.461 358.4-358.4 0-85.43-29.89-163.879-79.783-225.459l0.526 0.67 170.394-170.445c7.529-7.029 12.222-17.014 12.222-28.094 0-21.208-17.192-38.4-38.4-38.4-11.080 0-21.064 4.693-28.073 12.2l-0.021 0.022-170.445 170.394c-60.915-49.382-139.375-79.282-224.819-79.282-197.939 0-358.4 160.461-358.4 358.4 0 0.008 0 0.017 0 0.025v-0.001zM460.8 780.8c-155.523 0-281.6-126.077-281.6-281.6s126.077-281.6 281.6-281.6v0c155.523 0 281.6 126.077 281.6 281.6s-126.077 281.6-281.6 281.6v0z" />
<glyph unicode="&#xe90e;" glyph-name="search" d="M426.667 192c79.148 0.017 151.959 27.132 209.664 72.572l-0.725-0.55 187.563-187.563 60.331 60.331-187.563 187.563c44.913 56.987 72.044 129.814 72.064 208.977v0.005c0 188.203-153.131 341.333-341.333 341.333s-341.333-153.131-341.333-341.333 153.131-341.333 341.333-341.333zM426.667 789.333c141.184 0 256-114.816 256-256s-114.816-256-256-256-256 114.816-256 256 114.816 256 256 256z" />
<glyph unicode="&#xe90f;" glyph-name="share" d="M256 320s58.816 192 384 192v-192l384 256-384 256v-192c-256 0-384-159.68-384-320zM704 192h-576v384h125.888q15.168 17.92 32.512 34.176c43.478 40.502 95.503 72.474 153.007 92.869l3.089 0.955h-442.496v-640h832v268.608l-128-85.312z" />
<glyph unicode="&#xe910;" glyph-name="youtube" d="M960 450.8c0 2.2 0 4.7-0.1 7.6-0.1 8.1-0.3 17.2-0.5 26.9-0.8 27.9-2.2 55.7-4.4 81.9-3 36.1-7.4 66.2-13.4 88.8-13.21 48.077-50.261 85.194-97.319 98.267l-0.981 0.233c-28.3 7.6-83.7 12.3-161.7 15.2-37.1 1.4-76.8 2.3-116.5 2.8-13.9 0.2-26.8 0.3-38.4 0.4h-29.4c-11.6-0.1-24.5-0.2-38.4-0.4-39.7-0.5-79.4-1.4-116.5-2.8-78-3-133.5-7.7-161.7-15.2-48.057-13.274-85.122-50.405-98.071-97.522l-0.229-0.978c-6.1-22.6-10.4-52.7-13.4-88.8-2.2-26.2-3.6-54-4.4-81.9-0.3-9.7-0.4-18.8-0.5-26.9 0-2.9-0.1-5.4-0.1-7.6v-5.6c0-2.2 0-4.7 0.1-7.6 0.1-8.1 0.3-17.2 0.5-26.9 0.8-27.9 2.2-55.7 4.4-81.9 3-36.1 7.4-66.2 13.4-88.8 12.8-47.9 50.4-85.7 98.3-98.5 28.2-7.6 83.7-12.3 161.7-15.2 37.1-1.4 76.8-2.3 116.5-2.8 13.9-0.2 26.8-0.3 38.4-0.4h29.4c11.6 0.1 24.5 0.2 38.4 0.4 39.7 0.5 79.4 1.4 116.5 2.8 78 3 133.5 7.7 161.7 15.2 47.9 12.8 85.5 50.5 98.3 98.5 6.1 22.6 10.4 52.7 13.4 88.8 2.2 26.2 3.6 54 4.4 81.9 0.3 9.7 0.4 18.8 0.5 26.9 0 2.9 0.1 5.4 0.1 7.6zM888 445.6c0-2.1 0-4.4-0.1-7.1-0.1-7.8-0.3-16.4-0.5-25.7-0.7-26.6-2.1-53.2-4.2-77.9-2.7-32.2-6.5-58.6-11.2-76.3-6.2-23.1-24.4-41.4-47.4-47.5-21-5.6-73.9-10.1-145.8-12.8-36.4-1.4-75.6-2.3-114.7-2.8-13.7-0.2-26.4-0.3-37.8-0.3h-28.6l-37.8 0.3c-39.1 0.5-78.2 1.4-114.7 2.8-71.9 2.8-124.9 7.2-145.8 12.8-23 6.2-41.2 24.4-47.4 47.5-4.7 17.7-8.5 44.1-11.2 76.3-2.1 24.7-3.4 51.3-4.2 77.9-0.3 9.3-0.4 18-0.5 25.7 0 2.7-0.1 5.1-0.1 7.1v4.8c0 2.1 0 4.4 0.1 7.1 0.1 7.8 0.3 16.4 0.5 25.7 0.7 26.6 2.1 53.2 4.2 77.9 2.7 32.2 6.5 58.6 11.2 76.3 6.2 23.1 24.4 41.4 47.4 47.5 21 5.6 73.9 10.1 145.8 12.8 36.4 1.4 75.6 2.3 114.7 2.8 13.7 0.2 26.4 0.3 37.8 0.3h28.6l37.8-0.3c39.1-0.5 78.2-1.4 114.7-2.8 71.9-2.8 124.9-7.2 145.8-12.8 23-6.2 41.2-24.4 47.4-47.5 4.7-17.7 8.5-44.1 11.2-76.3 2.1-24.7 3.4-51.3 4.2-77.9 0.3-9.3 0.4-18 0.5-25.7 0-2.7 0.1-5.1 0.1-7.1zM423 314l232 135-232 133z" />
<glyph unicode="&#xe911;" glyph-name="phone" d="M617.472 652.8l-10.752 10.24c-26.624 27.648-22.016 40.448 4.096 66.56l139.264 140.8c41.472 41.984 49.152 61.952 88.576 24.576l10.752-10.24zM644.608 629.76l225.28 225.28c35.84-48.128 119.808-177.664 78.336-273.408-37.376-85.504-55.808-89.6-102.4-153.6-94.72-108.032-214.016-223.744-307.2-310.784-64.512-46.592-67.072-68.096-153.6-102.4-92.16-36.352-225.28 45.568-275.456 79.872l225.28 225.28 60.416-82.944c17.408-23.552 61.44 3.072 92.16 33.792 53.248 53.76 162.816 162.816 204.8 208.384 30.208 30.208 57.344 74.24 33.792 92.16zM80.384 115.2l-10.752 10.752c-34.816 37.888-14.848 46.080 26.624 87.040l140.288 139.264c26.112 25.088 38.4 30.72 65.024 5.632l10.24-10.752z" />
<glyph unicode="&#xe912;" glyph-name="play" horiz-adv-x="896" d="M848.8 530.6l-704 416.2c-57.2 33.8-144.8 1-144.8-82.6v-832.2c0-75 81.4-120.2 144.8-82.6l704 416c62.8 37 63 128.2 0 165.2z" />
<glyph unicode="&#xe913;" glyph-name="pdf" d="M886.4 675.84l-209.92 211.2-22.4 8.96h-494.080l-32-32v-352h64v320h384v-224l32-32h224v-64h64v140.8zM640 640v192l192-192zM160 448l-32-32v-384l32-32h704l32 32v384l-32 32zM832 128v-64h-640v320h640zM320 192h-20.48v-64h-43.52v192h67.84c48 0 72.32-23.040 72.32-64 0.004-0.255 0.006-0.555 0.006-0.856 0-17.994-7.9-34.142-20.42-45.167l-0.066-0.057c-14.281-11.215-32.515-17.986-52.33-17.986-1.178 0-2.351 0.024-3.517 0.071l0.167-0.005zM316.16 284.8h-16.64v-59.52h16.64c23.040 0 34.56 10.24 34.56 30.080s-11.52 29.44-34.56 29.44zM576 154.88c17.445 17.19 28.253 41.075 28.253 67.483 0 1.476-0.034 2.944-0.101 4.404l0.008-0.207c0 64-33.92 93.44-102.4 93.44h-67.84v-192h67.84c1.479-0.076 3.211-0.12 4.954-0.12 26.756 0 51.116 10.262 69.358 27.065l-0.072-0.065zM476.8 163.2v121.6h21.12c1.141 0.077 2.473 0.121 3.815 0.121 15.853 0 30.275-6.132 41.021-16.154l-0.036 0.033c9.948-10.337 16.076-24.412 16.076-39.919 0-1.042-0.028-2.077-0.082-3.104l0.006 0.144c0.066-1.085 0.103-2.354 0.103-3.631 0-16.318-6.107-31.209-16.16-42.514l0.057 0.065c-10.784-10.333-25.446-16.695-41.593-16.695-0.903 0-1.801 0.020-2.694 0.059l0.127-0.004zM761.6 202.24h-62.080v-74.24h-43.52v192h111.36v-35.2h-67.84v-47.36h62.080z" />
<glyph unicode="&#xe914;" glyph-name="compare" d="M704 138.667c0 76.583 62.083 138.667 138.667 138.667s138.667-62.083 138.667-138.667v0c0-76.583-62.083-138.667-138.667-138.667s-138.667 62.083-138.667 138.667v0zM842.667 213.333c-41.24-0.012-74.667-33.446-74.667-74.688 0-41.249 33.439-74.688 74.688-74.688 0.008 0 0.015 0 0.023 0h-0.001c41.24 0.012 74.667 33.446 74.667 74.688 0 41.249-33.439 74.688-74.688 74.688-0.008 0-0.015 0-0.023 0h0.001zM593.28 886.613c5.782-5.789 9.359-13.784 9.359-22.613s-3.576-16.824-9.359-22.614v0l-52.053-52.053h173.44c88.366 0 160-71.634 160-160v0-373.333c0-17.673-14.327-32-32-32s-32 14.327-32 32v0 373.333c0 53.019-42.981 96-96 96v0h-173.397l52.053-52.053c5.552-5.747 8.972-13.584 8.972-22.22 0-17.673-14.327-32-32-32-8.646 0-16.492 3.429-22.251 9.002l0.009-0.008-106.667 106.667c-5.782 5.789-9.359 13.784-9.359 22.613s3.576 16.824 9.359 22.614v0l106.667 106.667c5.789 5.782 13.784 9.359 22.613 9.359s16.824-3.576 22.614-9.359v0zM320 757.333c0-76.583-62.083-138.667-138.667-138.667s-138.667 62.083-138.667 138.667v0c0 76.583 62.083 138.667 138.667 138.667s138.667-62.083 138.667-138.667v0zM181.333 682.667c41.24 0.012 74.667 33.446 74.667 74.688 0 41.249-33.439 74.688-74.688 74.688-0.008 0-0.015 0-0.023 0h0.001c-41.24-0.012-74.667-33.446-74.667-74.688 0-41.249 33.439-74.688 74.688-74.688 0.008 0 0.015 0 0.023 0h-0.001zM430.72 9.387c-5.782 5.789-9.359 13.784-9.359 22.613s3.576 16.824 9.359 22.614v0l52.053 52.053h-173.44c-88.366 0-160 71.634-160 160v0 373.333c0 17.673 14.327 32 32 32s32-14.327 32-32v0-373.333c0-53.019 42.981-96 96-96v0h173.397l-52.053 52.053c-6.071 5.82-9.844 13.996-9.844 23.053 0 14.817 10.098 27.276 23.787 30.871l0.222 0.050c2.423 0.658 5.204 1.035 8.074 1.035 9.038 0 17.202-3.747 23.021-9.773l106.676-106.676c5.782-5.789 9.359-13.784 9.359-22.613s-3.576-16.824-9.359-22.614v0l-106.667-106.667c-5.789-5.782-13.784-9.359-22.613-9.359s-16.824 3.576-22.614 9.359v0z" />
<glyph unicode="&#xe915;" glyph-name="pdf-filled" d="M128 864c0 17.673 14.327 32 32 32v0h416c0.017 0 0.037 0 0.057 0 8.822 0 16.811-3.57 22.599-9.345l159.999-159.999c5.774-5.788 9.344-13.776 9.344-22.599 0-0.020 0-0.040 0-0.060v0.003-128h-64v64h-160c-17.673 0-32 14.327-32 32v0 160h-320v-768h512v32h64v-64c0-17.673-14.327-32-32-32v0h-576c-17.673 0-32 14.327-32 32v0zM576 818.752v-114.752h114.752zM256 480c0 17.673 14.327 32 32 32v0h160c17.673 0 32-14.327 32-32v0-160c0-17.673-14.327-32-32-32v0h-128v-96h-64zM320 352h96v96h-96zM512 192v320h192c17.673 0 32-14.327 32-32v0-256c0-17.673-14.327-32-32-32v0zM576 448v-192h96v192zM768 480c0 17.673 14.327 32 32 32v0h160v-64h-128v-96h128v-64h-128v-96h-64z" />
<glyph unicode="&#xe916;" glyph-name="filter" d="M107.2 803.2c-49.6-54.4-30.4-92.8 132.8-272l158.4-174.4 4.8-164.8c3.2-104 11.2-168 22.4-171.2 9.6-3.2 59.2 27.2 108.8 67.2l89.6 73.6v193.6l160 176c166.4 182.4 185.6 224 131.2 273.6-25.6 24-78.4 27.2-406.4 27.2-344 0-377.6-3.2-401.6-28.8z" />
<glyph unicode="&#xe917;" glyph-name="twitter" d="M447.488 334.891l203.179-270.891h298.667l-335.275 447.061 278.955 320.939h-113.067l-218.325-251.136-188.288 251.136h-298.667l320.427-427.307-296.107-340.693h113.067zM693.333 149.333l-448 597.333h85.333l448-597.333z" />
<glyph unicode="&#xe918;" glyph-name="link" d="M688 896c-26.51 0-48-21.49-48-48s21.49-48 48-48v0h108.16l-270.080-270.080c-7.982-8.549-12.883-20.063-12.883-32.723 0-26.51 21.49-48 48-48 12.659 0 24.174 4.901 32.751 12.908l-0.028-0.026 270.080 270.080v-108.16c0-26.51 21.49-48 48-48s48 21.49 48 48v0 272zM160 704v-576c0-17.673 14.327-32 32-32v0h576c17.673 0 32 14.327 32 32v0 272c0 26.51 21.49 48 48 48s48-21.49 48-48v0-272c0-70.692-57.308-128-128-128v0h-576c-70.692 0-128 57.308-128 128v0 576c0 70.692 57.308 128 128 128v0h272c26.51 0 48-21.49 48-48s-21.49-48-48-48v0h-272c-17.673 0-32-14.327-32-32v0z" />
<glyph unicode="&#xe919;" glyph-name="whatsapp" d="M812.8 750.507c-75.962 76.683-181.289 124.162-297.705 124.162-0.488 0-0.976-0.001-1.463-0.003h0.075c-232.96 0-422.827-189.867-422.827-422.827 0-74.667 19.627-147.2 56.32-211.2l-59.733-219.307 224 58.88c61.867-33.707 131.413-51.627 202.24-51.627 232.96 0 422.827 189.867 422.827 422.827 0 113.067-43.947 219.307-123.733 299.093zM513.707 100.267c-63.147 0-125.013 17.067-179.2 49.067l-12.8 7.68-133.12-34.987 35.413 129.707-8.533 13.227c-33.696 53.023-53.717 117.609-53.76 186.869v0.011c0 193.707 157.867 351.573 351.573 351.573 93.867 0 182.187-36.693 248.32-103.253 63.52-63.219 102.829-150.716 102.829-247.394 0-0.476-0.001-0.951-0.003-1.426v0.074c0.853-193.707-157.013-351.147-350.72-351.147zM706.56 363.093c-10.667 5.12-62.72 30.72-72.107 34.56-9.813 3.413-16.64 5.12-23.893-5.12-7.253-10.667-27.307-34.56-33.28-41.387-5.973-7.253-12.373-8.107-23.040-2.56-10.667 5.12-44.8 16.64-84.907 52.48-31.573 28.16-52.48 62.72-58.88 73.387-5.973 10.667-0.853 16.213 4.693 21.76 4.693 4.693 10.667 12.373 15.787 18.347s7.253 10.667 10.667 17.493c3.413 7.253 1.707 13.227-0.853 18.347s-23.893 57.173-32.427 78.507c-8.533 20.48-17.493 17.92-23.893 18.347h-20.48c-7.253 0-18.347-2.56-28.16-13.227-9.387-10.667-36.693-36.267-36.693-88.32s37.973-102.4 43.093-109.227c5.12-7.253 74.667-113.92 180.48-159.573 25.173-11.093 44.8-17.493 60.16-22.187 25.173-8.107 48.213-6.827 66.56-4.267 20.48 2.987 62.72 25.6 71.253 50.347 8.96 24.747 8.96 45.653 5.973 50.347s-9.387 6.827-20.053 11.947z" />
<glyph unicode="&#xe91a;" glyph-name="document" d="M170.667 789.333c0 47.128 38.205 85.333 85.333 85.333v0h341.333c11.781-0.003 22.446-4.78 30.165-12.501l213.333-213.333c7.722-7.719 12.499-18.384 12.501-30.165v-512.001c0-47.128-38.205-85.333-85.333-85.333v0h-512c-47.128 0-85.333 38.205-85.333 85.333v0zM750.336 618.667l-153.003 153.003v-153.003zM512 789.333h-256v-682.667h512v426.667h-213.333c-23.564 0-42.667 19.103-42.667 42.667v0zM341.333 405.333c0 23.564 19.103 42.667 42.667 42.667v0h256c23.564 0 42.667-19.103 42.667-42.667s-19.103-42.667-42.667-42.667v0h-256c-23.564 0-42.667 19.103-42.667 42.667v0zM341.333 234.667c0 23.564 19.103 42.667 42.667 42.667v0h256c23.564 0 42.667-19.103 42.667-42.667s-19.103-42.667-42.667-42.667v0h-256c-23.564 0-42.667 19.103-42.667 42.667v0z" />
<glyph unicode="&#xe91b;" glyph-name="whatsapp-fill" d="M93.184 49.877c-0.396-1.37-0.623-2.944-0.623-4.57 0-9.426 7.641-17.067 17.067-17.067 1.541 0 3.035 0.204 4.455 0.587l-0.119-0.027 196.565 51.371c58.695-32.403 128.664-51.478 203.087-51.499h0.177c234.069 0 424.875 189.696 424.875 422.912 0.001 0.322 0.001 0.703 0.001 1.085 0 116.556-47.545 222.008-124.299 298.018l-0.034 0.033c-76.592 76.582-182.397 123.949-299.266 123.949-0.449 0-0.898-0.001-1.348-0.002h0.069c-234.069 0-424.875-189.696-424.875-422.869 0-74.197 19.541-147.072 56.747-211.371zM379.136 654.080c7.808-0.213 16.469-0.64 24.704-18.901 5.461-12.16 14.635-34.56 22.144-52.821 5.845-14.208 10.624-25.899 11.819-28.288 2.773-5.461 4.437-11.733 0.853-19.115l-1.195-2.475c-2.901-5.973-4.949-10.24-9.813-15.787l-6.101-7.253c-3.627-4.437-7.253-8.789-10.325-11.861-5.504-5.461-11.179-11.349-4.864-22.272s28.501-46.848 61.227-75.819c23.073-20.875 49.936-38.117 79.343-50.508l1.851-0.692q4.48-1.92 7.253-3.243c10.965-5.461 17.493-4.608 23.808 2.731 6.357 7.381 27.435 31.957 34.859 42.88 7.168 10.923 14.507 9.216 24.661 5.461 10.155-3.797 64.171-30.293 75.136-35.712l6.101-2.987c7.637-3.627 12.8-6.144 15.019-9.813 2.731-4.651 2.731-26.453-6.315-52.139-9.301-25.6-54.059-50.176-74.325-52.053l-5.76-0.683c-18.603-2.219-42.155-5.12-126.123 27.947-103.509 40.704-171.819 141.653-185.6 162.091l-2.261 3.243-0.213 0.341c-6.315 8.405-44.757 59.819-44.757 112.896 0 50.773 25.045 77.227 36.437 89.259l2.005 2.133c7.236 8.147 17.638 13.345 29.258 13.652l0.054 0.001c7.381 0 14.805 0 21.12-0.213z" />
<glyph unicode="&#xe91c;" glyph-name="arrow-long-right" d="M650.176 273.92c-9.411-8.787-15.277-21.267-15.277-35.117 0-26.51 21.49-48 48-48 13.85 0 26.33 5.866 35.092 15.249l0.026 0.028 241.984 241.92-241.92 241.92c-8.625 8.346-20.393 13.49-33.363 13.49-26.51 0-48-21.49-48-48 0-12.954 5.131-24.709 13.472-33.344l-0.013 0.014 126.080-126.080h-664.256c-26.51 0-48-21.49-48-48s21.49-48 48-48h664.256z" />
<glyph unicode="&#xe91d;" glyph-name="books" d="M312.875 725.333c0 53.019 42.981 96 96 96v0h67.541c0.008 0 0.018 0 0.028 0 52.209 0 94.684-41.677 95.97-93.577l0.002-0.119c9.685 7.467 20.992 13.141 33.536 16.512l96.128 25.771c7.456 2.079 16.018 3.275 24.859 3.275 44.184 0 81.397-29.85 92.572-70.483l0.158-0.674 116.011-432.811c2.073-7.444 3.264-15.993 3.264-24.82 0-44.18-29.844-81.39-70.473-92.569l-0.674-0.158-96.171-25.771c-7.459-2.081-16.025-3.277-24.87-3.277-44.17 0-81.372 29.83-92.561 70.443l-0.158 0.674-81.579 304.469v-274.261c0-53.019-42.981-96-96-96v0h-67.584c-0.048 0-0.104 0-0.161 0-24.58 0-46.992 9.279-63.926 24.525l0.086-0.076c-16.847-15.169-39.26-24.448-63.839-24.448-0.056 0-0.113 0-0.169 0h-99.532c-53.019 0-96 42.981-96 96 0 0.015 0 0.030 0 0.045v-0.002 405.333c0 53.019 42.981 96 96 96v0h99.541c11.221 0 22.016-1.92 32-5.461zM312.875 224v406.272c-0.523 17.265-14.643 31.061-31.986 31.061-0.005 0-0.010 0-0.014 0h-99.541c-17.673 0-32-14.327-32-32v0-405.333c0-17.664 14.336-32 32-32h99.541c0.003 0 0.007 0 0.011 0 17.373 0 31.513 13.845 31.988 31.103l0.001 0.044zM408.875 192h67.541c17.673 0 32 14.327 32 32v0 501.333c0 17.673-14.327 32-32 32v0h-67.541c-17.673 0-32-14.327-32-32v0-502.187c0.476-17.302 14.616-31.147 31.989-31.147 0.004 0 0.008 0 0.012 0h-0.001zM599.893 643.115l115.925-432.725c3.781-13.764 16.183-23.709 30.907-23.709 2.953 0 5.813 0.4 8.528 1.149l-0.225-0.053 96.128 25.771c13.759 3.785 23.699 16.184 23.699 30.905 0 2.939-0.396 5.785-1.138 8.488l0.053-0.225-115.883 432.725c-3.785 13.759-16.184 23.699-30.905 23.699-2.939 0-5.785-0.396-8.488-1.138l0.225 0.053-96.171-25.728c-13.764-3.781-23.709-16.183-23.709-30.907 0-2.953 0.4-5.813 1.149-8.528l-0.053 0.225z" />
<glyph unicode="&#xe91e;" glyph-name="fax" d="M276.378 958.976h503.347c32.154-1.126 56.986-10.445 72.038-31.232 11.981-16.486 18.176-37.274 19.456-63.539l-0.051-107.162h61.389c32.102-1.126 56.934-10.394 71.987-31.181 11.981-16.486 18.176-37.325 19.456-63.59v-414.566c-0.102-32.051-2.355-56.013-11.213-72.602-13.722-25.6-39.117-37.018-81.408-40.397l-60.16 0.051v-99.789c0-23.398-4.198-43.981-13.158-61.44-12.595-24.474-36.608-36.813-67.43-37.53h-548.71c-30.413 0-55.398 11.11-70.963 33.894q-18.637 27.341-19.712 65.075v99.789h-52.224c-37.734 0-66.56 11.264-81.869 37.478-11.418 19.558-16.742 44.595-17.050 75.571v403.712c-1.126 32.563 5.53 59.238 21.76 79.002 19.61 23.962 53.606 30.413 100.147 26.522l32.41 0.051 0.051 96.358c-1.126 32.563 5.53 59.187 21.76 79.002 19.61 23.91 53.658 30.362 100.147 26.522zM802.662 337.869h-582.861v-301.824c0.358-11.622 3.072-20.48 7.782-27.443 1.69-2.458 5.12-3.994 14.336-3.994h547.891c2.409 0.034 4.725 0.144 7.021 0.331l-0.365-0.024h0.614c3.584 6.912 5.632 16.896 5.632 30.054zM732.109 105.728c18.946 0 34.304-15.358 34.304-34.304s-15.358-34.304-34.304-34.304h-439.296c-18.946 0-34.304 15.358-34.304 34.304s15.358 34.304 34.304 34.304v0zM732.109 202.854c18.946 0 34.304-15.358 34.304-34.304s-15.358-34.304-34.304-34.304v0h-439.296c-18.946 0-34.304 15.358-34.304 34.304s15.358 34.304 34.304 34.304v0zM119.245 688.538c-29.133-0.102-35.84-0.102-41.984-7.168-6.144-7.168-9.216-10.138-8.602-28.672v-404.582c0.205-19.661 0.819-29.082 5.274-36.25s9.216-8.55 25.088-8.55l52.224 0.051v134.502h-6.861c-18.946 0-34.304 15.358-34.304 34.304s15.358 34.304 34.304 34.304h737.485c18.946 0 34.304-15.358 34.304-34.304s-15.358-34.304-34.304-34.304h-10.65v-134.502l57.344-0.154c10.65 0.87 16.742-0.256 22.272 5.53 5.53 5.837 4.557 19.968 4.608 39.066v412.774c-0.563 12.186-1.69 16.282-5.478 20.736s-6.656 6.656-18.586 7.117zM732.109 299.93c18.946 0 34.304-15.358 34.304-34.304s-15.358-34.304-34.304-34.304h-439.296c-18.946 0-34.304 15.358-34.304 34.304s15.358 34.304 34.304 34.304v0zM823.501 657.203c56.815-0.029 102.861-46.093 102.861-102.912 0-56.837-46.075-102.912-102.912-102.912-0.018 0-0.036 0-0.054 0h0.003c-56.815 0.029-102.861 46.093-102.861 102.912 0 56.837 46.075 102.912 102.912 102.912 0.018 0 0.036 0 0.054 0h-0.003zM823.501 588.595c-18.946 0-34.304-15.358-34.304-34.304s15.358-34.304 34.304-34.304v0c18.946 0 34.304 15.358 34.304 34.304s-15.358 34.304-34.304 34.304v0zM229.274 888.934c-4.198-5.12-6.861-15.821-6.246-34.304l-0.051-97.536 579.635-0.051 0.051 105.472c-0.614 12.134-3.021 20.326-6.4 24.934-0.256 0.41-5.734 2.458-17.715 2.867l-504.934 0.154c-28.518 2.304-43.571-0.563-44.339-1.536z" />
<glyph unicode="&#xe91f;" glyph-name="check" d="M406.656 253.056l-210.816 210.688c-5.827 6.027-13.985 9.769-23.017 9.769-17.673 0-32-14.327-32-32 0-9.032 3.742-17.19 9.76-23.009l256.009-256.009 512 512c5.558 5.749 8.983 13.59 8.983 22.231 0 17.673-14.327 32-32 32-8.641 0-16.482-3.425-22.24-8.991l-466.743-466.679z" />
<glyph unicode="&#xe920;" glyph-name="cross" d="M804.318 684.749c7.117 7.108 11.519 16.932 11.519 27.785 0 21.688-17.581 39.269-39.269 39.269-10.835 0-20.646-4.388-27.751-11.485v0l-236.817-236.817-236.749 236.817c-7.111 7.111-16.934 11.509-27.785 11.509-21.701 0-39.293-17.592-39.293-39.293 0-10.851 4.398-20.674 11.509-27.785v0l236.817-236.749-236.817-236.749c-7.111-7.111-11.509-16.934-11.509-27.785 0-21.701 17.592-39.293 39.293-39.293 10.851 0 20.674 4.398 27.785 11.509v0l236.749 236.817 236.817-236.817c7.105-7.096 16.915-11.485 27.75-11.485 21.688 0 39.269 17.581 39.269 39.269 0 10.852-4.402 20.677-11.518 27.784v0l-236.817 236.749z" />
<glyph unicode="&#xe921;" glyph-name="cross-fill" d="M1024 448c0 282.77-229.23 512-512 512s-512-229.23-512-512c0-282.77 229.23-512 512-512v0c282.77 0 512 229.23 512 512v0zM712.96 308.053c7.668-7.712 12.407-18.343 12.407-30.080s-4.74-22.368-12.409-30.082l0.002 0.002c-7.733-7.795-18.45-12.621-30.293-12.621s-22.56 4.826-30.291 12.618l-132.696 132.696c-1.963 1.792-4.587 2.889-7.467 2.889s-5.503-1.097-7.475-2.897l0.009 0.008-132.693-132.693c-7.412-6.377-17.129-10.259-27.753-10.259-23.564 0-42.667 19.103-42.667 42.667 0 10.624 3.883 20.341 10.307 27.809l-0.047-0.056 132.693 132.693c1.792 1.963 2.889 4.587 2.889 7.467s-1.097 5.503-2.897 7.475l0.008-0.009-132.693 132.693c-7.795 7.733-12.621 18.45-12.621 30.293s4.826 22.56 12.618 30.291l0.003 0.003c7.712 7.668 18.343 12.407 30.080 12.407s22.368-4.74 30.082-12.409l132.691-132.691c1.873-1.992 4.525-3.232 7.467-3.232s5.594 1.241 7.462 3.227l132.698 132.698c7.753 7.753 18.463 12.548 30.293 12.548 23.661 0 42.841-19.181 42.841-42.841 0-11.83-4.795-22.541-12.548-30.293l-132.693-132.693c-1.992-1.873-3.232-4.525-3.232-7.467s1.241-5.594 3.227-7.462l0.005-0.005z" />
<glyph unicode="&#xe922;" glyph-name="facebook" d="M597.333 384h106.667l42.667 170.667h-149.333v85.333c0 43.947 0 85.333 85.333 85.333h64v143.36c-13.909 1.835-66.432 5.973-121.899 5.973-115.84 0-198.101-70.699-198.101-200.533v-119.467h-128v-170.667h128v-362.667h170.667z" />
<glyph unicode="&#xe923;" glyph-name="info-fill" d="M512 874.667c-235.641 0-426.667-191.025-426.667-426.667s191.025-426.667 426.667-426.667c235.641 0 426.667 191.025 426.667 426.667v0c0 235.641-191.025 426.667-426.667 426.667v0zM554.667 277.333c0-23.564-19.103-42.667-42.667-42.667s-42.667 19.103-42.667 42.667v0 213.333c0 23.564 19.103 42.667 42.667 42.667s42.667-19.103 42.667-42.667v0zM512 576c-23.564 0-42.667 19.103-42.667 42.667s19.103 42.667 42.667 42.667c23.564 0 42.667-19.103 42.667-42.667v0c0-23.564-19.103-42.667-42.667-42.667v0z" />
<glyph unicode="&#xe924;" glyph-name="instagram" d="M332.8 874.667h358.4c136.533 0 247.467-110.933 247.467-247.467v-358.4c0-136.672-110.795-247.467-247.467-247.467v0h-358.4c-136.533 0-247.467 110.933-247.467 247.467v358.4c0 136.672 110.795 247.467 247.467 247.467v0zM324.267 789.333c-84.831 0-153.6-68.769-153.6-153.6v0-375.467c0-84.907 68.693-153.6 153.6-153.6h375.467c84.831 0 153.6 68.769 153.6 153.6v0 375.467c0 84.907-68.693 153.6-153.6 153.6zM736 725.333c29.455 0 53.333-23.878 53.333-53.333v0c0-29.455-23.878-53.333-53.333-53.333v0c-29.455 0-53.333 23.878-53.333 53.333v0c0 29.455 23.878 53.333 53.333 53.333v0zM512 661.333c117.821 0 213.333-95.513 213.333-213.333v0c0-117.821-95.513-213.333-213.333-213.333v0c-117.821 0-213.333 95.513-213.333 213.333v0c0 117.821 95.513 213.333 213.333 213.333v0zM512 576c-70.692 0-128-57.308-128-128v0c0-70.692 57.308-128 128-128v0c70.692 0 128 57.308 128 128v0c0 70.692-57.308 128-128 128v0z" />
<glyph unicode="&#xe925;" glyph-name="left-arrow" d="M424.96 743.040l-272-272-21.952-23.040 21.984-23.040 272-272 46.080 46.080-217.12 216.96h642.048v64h-642.016l217.024 216.96z" />
<glyph unicode="&#xe926;" glyph-name="login" d="M796.444 846.222h-455.111c-31.419 0-56.889-25.47-56.889-56.889v0h512v-682.667h-455.111v278.756h-56.889v-278.756c0-31.419 25.47-56.889 56.889-56.889v0h455.111c31.419 0 56.889 25.47 56.889 56.889v0 682.667c0 31.419-25.47 56.889-56.889 56.889v0zM430.080 434.916c-6.102-5.248-9.943-12.978-9.943-21.605 0-15.709 12.735-28.444 28.444-28.444 8.627 0 16.357 3.841 21.573 9.905l0.031 0.037 164.693 164.693-164.409 164.693c-4.941 4.251-11.419 6.84-18.502 6.84-15.709 0-28.444-12.735-28.444-28.444 0-7.083 2.589-13.56 6.871-18.539l-0.031 0.037 95.858-93.867h-412.444c-15.709 0-28.444-12.735-28.444-28.444v0c0-15.709 12.735-28.444 28.444-28.444v0h412.444z" />
<glyph unicode="&#xe927;" glyph-name="logout" d="M116.832 416.336h554.448c17.696 0 32 14.336 32 32s-14.304 32-32 32h-552.448l115.76 115.76c12.496 12.496 12.496 32.752 0 45.248s-32.752 12.496-45.248 0l-189.008-194 189.008-194c6.256-6.256 14.432-9.376 22.624-9.376s16.368 3.12 22.624 9.376c12.496 12.496 12.496 32.752 0 45.248zM959.664 960h-544.001c-35.36 0-64-28.656-64-64v-288h64.416v248.976c0 21.376 17.344 38.72 38.72 38.72h464.72c21.391 0 38.72-17.344 38.72-38.72l1.007-818.288c0-21.376-17.328-38.72-38.72-38.72h-465.71c-21.376 0-38.72 17.344-38.72 38.72v250.368l-64.416-0.080v-288.976c0-35.344 28.64-64 64-64h543.984c35.36 0 64.016 28.656 64.016 64v896c-0.015 35.344-28.671 64-64.015 64z" />
<glyph unicode="&#xe928;" glyph-name="minus" d="M810.667 405.419h-597.333v85.333h597.333z" />
<glyph unicode="&#xe929;" glyph-name="pinterest" d="M385.707 40.96c40.96-12.373 82.347-19.627 126.293-19.627 235.641 0 426.667 191.025 426.667 426.667v0c0 235.641-191.025 426.667-426.667 426.667v0c-235.641 0-426.667-191.025-426.667-426.667v0c0-181.333 113.92-337.067 274.773-398.507-3.84 33.28-7.68 88.32 0 126.293l49.067 210.773s-12.373 24.747-12.373 64c0 58.88 36.693 102.827 78.507 102.827 36.693 0 53.76-26.88 53.76-61.44 0-36.693-24.32-89.173-36.693-139.52-7.253-41.813 22.187-78.507 64.853-78.507 75.947 0 134.827 81.067 134.827 195.413 0 102.4-73.387 172.373-178.773 172.373-120.32 0-191.147-89.6-191.147-183.893 0-36.693 11.947-73.813 31.573-98.133 3.84-2.56 3.84-5.973 2.56-12.373l-12.373-46.507c0-7.253-4.693-9.813-11.947-4.693-54.613 23.893-86.187 101.547-86.187 164.267 0 134.827 95.573 257.28 279.893 257.28 146.773 0 261.12-105.387 261.12-245.333 0-146.773-90.88-264.533-221.013-264.533-41.387 0-81.92 22.187-96.427 48.213l-28.587-101.12c-9.813-36.693-36.693-85.76-55.040-115.2z" />
<glyph unicode="&#xe92a;" glyph-name="plus" d="M810.667 405.333h-256v-256h-85.333v256h-256v85.333h256v256h85.333v-256h256z" />
<glyph unicode="&#xe92b;" glyph-name="question" d="M346.453 680.107c0 81.169 80.691 148.48 165.547 148.48s165.547-67.311 165.547-148.48c0-75.025-38.025-110.182-89.156-155.58l-2.116-1.843c-50.722-44.988-113.527-100.625-113.527-211.217 0-21.679 17.574-39.253 39.253-39.253s39.253 17.574 39.253 39.253v0c0 74.069 37.82 108.817 89.225 154.283l1.365 1.365c51.063 45.193 114.21 101.171 114.21 212.992 0 134.622-126.703 226.987-244.053 226.987s-244.053-92.365-244.053-226.987c0-21.679 17.574-39.253 39.253-39.253s39.253 17.574 39.253 39.253v0zM512 48.094c32.99 0 59.733 26.744 59.733 59.733s-26.744 59.733-59.733 59.733v0c-32.99 0-59.733-26.744-59.733-59.733s26.744-59.733 59.733-59.733v0z" />
<glyph unicode="&#xe92c;" glyph-name="request" d="M800 251.456v420.544c0 70.592-57.408 128-128 128h-133.504l82.752 82.752-45.248 45.248-160-160 160-160 45.248 45.248-82.752 82.752h133.504c35.296 0 64-28.736 64-64v-420.544c-55.040-14.304-96-64-96-123.456 0-70.592 57.408-128 128-128s128 57.408 128 128c0 59.456-40.96 109.12-96 123.456zM768 64c-35.296 0-64 28.704-64 64s28.704 64 64 64 64-28.736 64-64-28.704-64-64-64zM128 768c0-59.456 40.96-109.12 96-123.456v-393.088c-55.040-14.304-96-64-96-123.456 0-70.592 57.408-128 128-128s128 57.408 128 128c0 59.488-40.96 109.12-96 123.456v393.088c55.040 14.304 96 64 96 123.456 0 70.592-57.408 128-128 128s-128-57.408-128-128zM320 128c0-35.296-28.704-64-64-64s-64 28.704-64 64 28.704 64 64 64 64-28.736 64-64zM320 768c0-35.296-28.704-64-64-64s-64 28.704-64 64 28.704 64 64 64 64-28.704 64-64z" />
<glyph unicode="&#xe92d;" glyph-name="right-arrow" d="M599.040 743.040l-46.080-46.080 217.056-216.96h-642.016v-64h642.016l-217.024-216.96 46.080-46.080 272 272 21.952 23.040-21.984 23.040z" />
<glyph unicode="&#xe92e;" glyph-name="settings" d="M891.5 466v-9q0-4.5 0.5-9v-9q0-4.5-0.5-9l129.5-80.5-79.5-191.5-148.5 34q-12-13-25-25l34-148.5-191.5-79.5-80.5 129.5h-9q-4.5 0-9-0.5h-9q-4.5 0-9 0.5l-80.5-129.5-191.5 79.5 34 148.5q-13 12-25 25l-148.5-34-79.5 191.5 129.5 80.5v9q0 4.5-0.5 9v9q0 4.5 0.5 9l-129.5 80.5 79.5 191.5 148.5-34q12 13 25 25l-34 148.5 191.5 79.5 80.5-129.5h9q4.5 0 9 0.5h9q4.5 0 9-0.5l80.5 129.5 191.5-79.5-34-148.5q13-12 25-25l148.5 34 79.5-191.5zM833 401q1 12 2 23.5t1 24q0 11.5-1 23.5t-2 23.5l118 73.5-43 104-135.5-31.5q-15.5 19-31.5 35t-35.5 32l31.5 135.5-104 43-74-118q-11.5 1-23.5 2t-23.5 1q-12 0-23.5-1t-24-2l-73.5 118-104-43 31.5-135.5q-19-15.5-35-31.5t-32-35.5l-135.5 31.5-43-104 118-74q-1-12-2-23.5t-1-24q0-11.5 1-23.5t2-23.5l-118-73.5 43-104 135.5 31.5q15.5-19 31.5-35t35.5-32l-31.5-135.5 104-43 74 118q11.5-1 23.5-2t23.5-1q12 0 23.5 1t24 2l73.5-118 104 43-31.5 135.5q19 15.5 35 31.5t32 35.5l135.5-31.5 43 104zM512 636q39 0 73-14.5t60-40.5 40-59.5 15-73.5q0-39-14.5-73t-40.5-60-59.5-40-73.5-15q-39 0-73 14.5t-60 40.5-40 59.5-15 73.5q0 39 14.5 73t40.5 60 59.5 40 73.5 15zM512 316q27.5 0 51.5 10t42 28.5 28 42 10.5 51.5q0 27.5-10 51.5t-28.5 42-42 28-51.5 10.5q-27.5 0-51.5-10t-42-28.5-28-42-10.5-51.5q0-27.5 10-51.5t28.5-42 42-28 51.5-10.5z" />
<glyph unicode="&#xe92f;" glyph-name="tiktok" d="M341.333 32v0c-135.494 0-245.333 109.839-245.333 245.333v341.333c0 135.494 109.839 245.333 245.333 245.333h341.333c135.494 0 245.333-109.839 245.333-245.333v-341.333c0-135.494-109.839-245.333-245.333-245.333zM585.003 714.112c-4.387 12.788-16.307 21.816-30.336 21.816-17.648 0-31.959-14.286-32-31.924v-384.004c0-53.019-42.981-96-96-96s-96 42.981-96 96c0 53.019 42.981 96 96 96v0c17.673 0 32 14.327 32 32s-14.327 32-32 32v0c-88.366 0-160-71.634-160-160s71.634-160 160-160c88.366 0 160 71.634 160 160v0 279.125c32.725-30.379 78.805-55.125 138.667-55.125 17.673 0 32 14.327 32 32s-14.327 32-32 32v0c-41.472 0-73.003 17.067-96.384 39.211-23.893 22.699-38.315 50.048-43.947 66.901z" />
<glyph unicode="&#xe930;" glyph-name="tumblr" d="M197.536 960c-109.438 0-197.536-88.098-197.536-197.536v-628.929c0-109.438 88.098-197.536 197.536-197.536h628.929c109.438 0 197.536 88.098 197.536 197.536v628.929c0 109.438-88.098 197.536-197.536 197.536zM445.375 815.2h101.504v-180.417h169.409v-112.065h-169.409v-183.040c0-41.372 2.198-67.952 6.593-79.712 4.369-11.739 12.542-21.111 24.448-28.128 15.793-9.466 33.832-14.208 54.176-14.208 36.125 0 72.081 11.765 107.841 35.265v-112.577c-30.512-14.365-58.108-24.491-82.816-30.273-24.736-5.78-51.483-8.672-80.224-8.672-32.616 0-61.484 4.154-86.56 12.384-25.075 8.252-46.447 20.008-64.16 35.232-17.714 15.27-30 31.483-36.832 48.672-6.84 17.167-10.24 42.075-10.24 74.689v250.368h-78.913v101.024c28.035 9.113 52.091 22.143 72.064 39.168 20.004 16.999 36.037 37.428 48.128 61.28 12.109 23.831 20.442 54.191 24.992 91.008z" />
<glyph unicode="&#xe931;" glyph-name="upload" d="M490.667 295.381v369.067l-99.413-99.413-30.208 30.635 150.955 150.997 150.997-150.997-30.208-30.677-99.456 99.456v-369.067zM282.283 149.333q-29.483 0-49.195 19.712t-19.755 49.237v103.381h42.667v-103.381q0-9.856 8.192-18.091t18.048-8.192h459.52q9.813 0 18.048 8.192t8.192 18.091v103.381h42.667v-103.381q0-29.483-19.712-49.195t-49.237-19.755z" />
<glyph unicode="&#xe932;" glyph-name="user-outline" d="M512 906.667c-111.93 0-202.667-90.737-202.667-202.667s90.737-202.667 202.667-202.667v0c111.93 0 202.667 90.737 202.667 202.667s-90.737 202.667-202.667 202.667v0zM373.333 704c0 76.583 62.083 138.667 138.667 138.667s138.667-62.083 138.667-138.667v0c0-76.583-62.083-138.667-138.667-138.667s-138.667 62.083-138.667 138.667v0zM512 437.333c-98.688 0-189.653-22.443-257.024-60.331-66.389-37.376-116.309-93.952-116.309-163.669v-4.352c-0.043-49.579-0.085-111.787 54.485-156.245 26.837-21.845 64.427-37.419 115.2-47.659 50.859-10.325 117.205-15.744 203.648-15.744s152.747 5.419 203.691 15.744c50.773 10.24 88.32 25.813 115.2 47.659 54.571 44.459 54.485 106.667 54.443 156.245v4.352c0 69.717-49.92 126.293-116.267 163.669-67.413 37.888-158.336 60.331-257.067 60.331zM202.667 213.333c0 36.309 26.539 75.733 83.669 107.861 56.149 31.573 135.851 52.139 225.707 52.139 89.771 0 169.472-20.565 225.621-52.139 57.173-32.128 83.669-71.552 83.669-107.861 0-55.808-1.707-87.211-30.891-110.933-15.787-12.885-42.24-25.472-87.467-34.603-45.099-9.131-106.752-14.464-190.976-14.464s-145.92 5.333-190.976 14.464c-45.227 9.131-71.68 21.717-87.467 34.56-29.184 23.765-30.891 55.168-30.891 110.976z" />
<glyph unicode="&#xe933;" glyph-name="article" d="M405.333 682.88c0 23.564 19.103 42.667 42.667 42.667v0h256c23.564 0 42.667-19.103 42.667-42.667s-19.103-42.667-42.667-42.667v0h-256c-23.564 0-42.667 19.103-42.667 42.667v0zM603.179 597.547h94.976c2.475 0 5.931 0 9.045-0.256 3.755-0.299 9.771-1.152 16.171-4.395 8.065-4.169 14.476-10.58 18.533-18.408l0.112-0.238c3.285-6.4 4.096-12.373 4.395-16.171 0.256-3.115 0.256-6.571 0.256-9.045v-73.643c0-2.475 0-5.931-0.256-9.045-0.415-5.961-1.993-11.465-4.507-16.413l0.112 0.243c-4.169-8.065-10.58-14.476-18.408-18.533l-0.238-0.112c-4.705-2.402-10.21-3.98-16.036-4.387l-0.134-0.008c-2.435-0.165-5.277-0.259-8.142-0.259-0.318 0-0.635 0.001-0.953 0.003h-94.927c-2.475 0-5.931 0-9.045 0.256-5.961 0.415-11.465 1.993-16.413 4.507l0.243-0.112c-8.065 4.169-14.476 10.58-18.533 18.408l-0.112 0.238c-2.402 4.705-3.98 10.21-4.387 16.036l-0.008 0.134c-0.256 3.115-0.256 6.571-0.256 9.045v73.643c0 2.475 0 5.931 0.256 9.045 0.299 3.755 1.152 9.771 4.395 16.171 4.169 8.065 10.58 14.476 18.408 18.533l0.238 0.112c6.4 3.243 12.373 4.096 16.171 4.395 3.115 0.256 6.571 0.256 9.045 0.256zM618.667 533.547v-42.667h64v42.667zM437.333 586.88c-17.673 0-32-14.327-32-32s14.327-32 32-32v0h53.333c17.673 0 32 14.327 32 32s-14.327 32-32 32v0zM437.333 490.88c-17.673 0-32-14.327-32-32s14.327-32 32-32v0h53.333c17.673 0 32 14.327 32 32s-14.327 32-32 32v0zM437.333 373.547c-17.673 0-32-14.327-32-32s14.327-32 32-32v0h277.333c17.673 0 32 14.327 32 32s-14.327 32-32 32v0zM696.747 842.88h-241.493c-22.827 0-41.813 0-57.387-1.28-16.213-1.28-31.403-4.181-45.781-11.52-22.184-11.467-39.818-29.101-50.977-50.632l-0.308-0.653c-7.339-14.379-10.24-29.568-11.52-45.781-1.28-15.573-1.28-34.56-1.28-57.387v-430.080h-96c-17.673 0-32-14.327-32-32v0c0-71.808 24.405-114.347 55.467-137.6 17.323-12.971 39.851-22.357 61.824-22.4h433.024c30.165 0 61.952-1.28 89.6 12.8 22.179 11.456 39.812 29.075 50.977 50.59l0.308 0.652c7.339 14.421 10.24 29.611 11.52 45.824 1.28 15.573 1.28 34.56 1.28 57.387v454.827c0 22.827 0 41.813-1.28 57.387-1.28 16.213-4.181 31.403-11.52 45.781-11.456 22.179-29.075 39.812-50.59 50.977l-0.652 0.308c-14.421 7.339-29.611 10.24-45.824 11.52-15.573 1.28-34.56 1.28-57.387 1.28zM743.339 118.101c-7.69 1.632-14.459 4.782-20.271 9.141l0.133-0.095c-11.605 8.704-29.867 30.208-29.867 86.4 0 17.673-14.327 32-32 32v0h-309.333v428.8c0 24.405 0 40.832 1.067 53.461 0.981 12.245 2.773 18.091 4.736 21.931 5.215 10.098 13.241 18.124 23.041 23.199l0.297 0.14c3.84 1.963 9.685 3.755 21.931 4.736 12.629 1.024 29.013 1.067 53.461 1.067h238.933c24.405 0 40.832 0 53.419-1.067 12.288-0.981 18.133-2.773 21.973-4.736 10.069-5.12 18.219-13.269 23.339-23.339 1.963-3.84 3.755-9.685 4.736-21.931 1.024-12.629 1.067-29.013 1.067-53.461v-452.267c0-24.405 0-40.832-1.067-53.419-0.981-12.288-2.773-18.133-4.736-21.973-5.215-10.098-13.241-18.124-23.041-23.199l-0.297-0.14c-6.059-3.072-12.629-4.565-27.52-5.248zM277.845 117.547h-0.427l-0.341 0.085c-8.839 1.29-16.712 4.666-23.346 9.611l0.136-0.097c-9.088 6.827-22.229 21.461-27.52 54.4h404.779c2.987-25.771 9.6-46.848 18.645-64z" />
<glyph unicode="&#xe934;" glyph-name="linkedin-fill" d="M888.34 896h-747.78c-40.86 0-76.56-29.4-76.56-69.78v-749.44c0-40.6 35.7-76.78 76.56-76.78h747.56c41.080 0 71.88 36.42 71.88 76.78v749.44c0.24 40.38-30.8 69.78-71.66 69.78zM341.74 149.14h-128.36v399.1h128.36zM282 608.92h-0.92c-41.080 0-67.68 30.58-67.68 68.86 0 38.98 27.3 68.84 69.3 68.84s67.7-29.64 68.62-68.84c-0.020-38.28-26.62-68.86-69.32-68.86zM810.86 149.14h-128.36v218.22c0 52.28-18.68 88-65.12 88-35.48 0-56.48-24-65.82-47.38-3.5-8.4-4.44-19.84-4.44-31.52v-227.32h-128.36v399.1h128.36v-55.54c18.68 26.6 47.86 64.88 115.76 64.88 84.26 0 148-55.54 148-175.28z" />
<glyph unicode="&#xe935;" glyph-name="facebook-fill" d="M967.475 960h-910.95c-31.232 0-56.525-25.293-56.525-56.525v-910.95c0-31.232 25.293-56.525 56.525-56.525h490.394v396.544h-133.427v154.522h133.427v114.022c0 132.301 80.794 204.288 198.81 204.288 56.525 0 105.062-4.198 119.245-6.093v-138.24h-81.818c-64.205 0-76.595-30.515-76.595-75.264v-98.662h153.037l-19.968-154.522h-133.12v-396.595h260.966c31.232 0 56.525 25.293 56.525 56.525v910.95c0 31.232-25.293 56.525-56.525 56.525z" />
<glyph unicode="&#xe936;" glyph-name="pinterest-fill" horiz-adv-x="896" d="M768 896h-640c-70.6 0-128-57.4-128-128v-640c0-70.6 57.4-128 128-128h145.2l-4.4 1.6c-10.8 96.2-6.2 115 31.4 269.4 7.8 32 17 70 27.8 115.8 0 0-14.6 29.6-14.6 73 0 141.4 151 156 151 50 0-27-10.8-62.2-22.4-99.6-6.6-21.2-13.2-43-18.2-64-11.4-49 24.6-88.8 72.8-88.8 87.4 0 154.4 92 154.4 224.8 0 117.6-84.6 199.8-205.2 199.8-139.8 0-221.8-104.8-221.8-213.2 0-42.2 16.4-87.4 36.6-112 4-4.8 4.6-9 3.4-14-2.2-9.4-6.2-25.8-9.4-38.4-2-8-3.6-14.6-4.2-17.2-2.2-9-7-11-16.4-6.6-61.2 28.6-99.6 118.2-99.6 190.2 0 155 112.4 297.2 324.4 297.2 170.4 0 302.8-121.4 302.8-283.6 0-169.2-106.6-305.4-254.8-305.4-49.8 0-96.6 25.8-112.6 56.4 0 0-24.6-93.8-30.6-116.8-10-38.6-35.2-85.8-54.8-118.6h459.2c70.6 0 128 57.4 128 128v640c0 70.6-57.4 128-128 128z" />
<glyph unicode="&#xe937;" glyph-name="instagram-fill" horiz-adv-x="896" d="M388.8 536.6c-30.164-19.173-49.889-52.414-49.889-90.263 0-58.874 47.726-106.6 106.6-106.6 23.13 0 44.539 7.367 62.010 19.882l-0.321-0.219c30.164 19.173 49.889 52.414 49.889 90.263 0 58.874-47.726 106.6-106.6 106.6-23.13 0-44.539-7.367-62.010-19.882l0.321 0.219zM673.4 673.4c-10.4 10.4-23 18.6-36.8 24-36.2 14.2-115.2 13.6-166.2 13-8.2 0-15.8-0.2-22.4-0.2s-14.4 0-22.8 0.2c-51 0.6-129.6 1.4-165.8-13-13.8-5.4-26.2-13.6-36.8-24s-18.6-23-24-36.8c-14.2-36.2-13.4-115.4-13-166.4 0-8.2 0.2-15.8 0.2-22.2s0-14-0.2-22.2c-0.4-51-1.2-130.2 13-166.4 5.4-13.8 13.6-26.2 24-36.8s23-18.6 36.8-24c36.2-14.2 115.2-13.6 166.2-13 8.2 0 15.8 0.2 22.4 0.2s14.4 0 22.8-0.2c51-0.6 129.6-1.4 165.8 13 13.8 5.4 26.2 13.6 36.8 24s18.6 23 24 36.8c14.4 36 13.6 114.8 13 166 0 8.4-0.2 16.2-0.2 22.8s0 14.2 0.2 22.8c0.6 51 1.4 129.8-13 166-5.4 13.8-13.6 26.2-24 36.8zM539.2 584.4c36.2-24.2 61.2-61.8 69.8-104.4s-0.4-87-24.6-123.2c-12-18-27.4-33.2-45.2-45.2s-38-20.2-59.2-24.4c-42.6-8.4-87 0.4-123.2 24.6s-61.2 61.8-69.8 104.4 0.4 87 24.4 123.2 61.8 61.2 104.4 69.8 87-0.4 123.2-24.4h0.2zM597.6 587c-6.2 4.2-11.2 10.2-14.2 17.2s-3.6 14.6-2.2 22.2 5.2 14.2 10.4 19.6 12.2 9 19.6 10.4 15.2 0.8 22.2-2.2 13-7.8 17.2-14 6.4-13.6 6.4-21.2c0-5-1-10-2.8-14.6s-4.8-8.8-8.2-12.4-7.8-6.4-12.4-8.4-9.6-3-14.6-3c-7.6 0-15 2.2-21.2 6.4zM896 768c0 70.6-57.4 128-128 128h-640c-70.6 0-128-57.4-128-128v-640c0-70.6 57.4-128 128-128h640c70.6 0 128 57.4 128 128zM714 182c-37.4-37.4-82.8-49.2-134-51.8-52.8-3-211.2-3-264 0-51.2 2.6-96.6 14.4-134 51.8s-49.2 82.8-51.6 134c-3 52.8-3 211.2 0 264 2.6 51.2 14.2 96.6 51.6 134s83 49.2 134 51.6c52.8 3 211.2 3 264 0 51.2-2.6 96.6-14.2 134-51.6s49.2-82.8 51.6-134c3-52.6 3-210.8 0-263.8-2.6-51.2-14.2-96.6-51.6-134z" />
<glyph unicode="&#xe938;" glyph-name="youtube-fill" horiz-adv-x="896" d="M564 447.6l-190.4 108.2v-216.4zM768 896h-640c-70.6 0-128-57.4-128-128v-640c0-70.6 57.4-128 128-128h640c70.6 0 128 57.4 128 128v640c0 70.6-57.4 128-128 128zM796.8 623.8c15.2-57.2 15.2-176.4 15.2-176.4s0-119.2-15.2-176.2c-8.4-31.6-33-55.4-64.4-63.8-56.6-15.4-284.4-15.4-284.4-15.4s-227.8 0-284.4 15.2c-31.4 8.4-56 32.2-64.4 63.8-15.2 57.2-15.2 176.4-15.2 176.4s0 119.4 15.2 176.4c8.4 31.6 33 56.4 64.4 64.8 56.6 15.4 284.4 15.4 284.4 15.4s227.8 0 284.4-15.4c31.4-8.4 56-33.2 64.4-64.8z" />
<glyph unicode="&#xe939;" glyph-name="twitter-fill" d="M810.667 917.333v0c94.257 0 170.667-76.41 170.667-170.667v-597.333c0-94.257-76.41-170.667-170.667-170.667h-597.333c-94.257 0-170.667 76.41-170.667 170.667v597.333c0 94.257 76.41 170.667 170.667 170.667zM199.083 768c-12.281-4.658-20.853-16.326-20.853-29.996 0-7.258 2.417-13.952 6.489-19.321l-0.058 0.080 239.531-317.867-254.251-272.896h87.339l206.080 220.971 158.379-210.261c3.649-4.799 8.523-8.491 14.159-10.636l0.22-0.073h188.672c12.246 4.676 20.786 16.326 20.786 29.971 0 7.269-2.424 13.973-6.508 19.345l0.058-0.079-239.531 317.867 254.464 272.896h-87.467l-206.080-221.013-158.464 210.261c-3.645 4.815-8.519 8.522-14.159 10.678l-0.219 0.074zM663.296 189.952l-388.907 516.096h86.144l388.864-516.053z" />
<glyph unicode="&#xe93a;" glyph-name="yas-gruplari" d="M631.003 557.714c45.445 0 82.286-36.841 82.286-82.286v0-228.535c0-111.108-90.071-201.179-201.179-201.179s-201.179 90.071-201.179 201.179v0 228.535c0 45.445 36.841 82.286 82.286 82.286v0zM631.003 502.857h-237.787c-15.148 0-27.429-12.28-27.429-27.429v0-228.535c0-80.812 65.511-146.322 146.322-146.322s146.322 65.511 146.322 146.322v0 228.535c0 15.148-12.28 27.429-27.429 27.429v0zM155.429 557.714h151.991c-14.244-14.806-24.692-33.366-29.713-54.047l-0.166-0.81h-122.112c-15.148 0-27.429-12.28-27.429-27.429v0-191.963c0-0.026 0-0.056 0-0.086 0-60.594 49.121-109.714 109.714-109.714 16.409 0 31.977 3.602 45.955 10.059l-0.68-0.282c4.864-17.92 11.849-34.962 20.626-50.907-19.407-8.702-42.062-13.771-65.902-13.771-90.89 0-164.571 73.681-164.571 164.571 0 0.046 0 0.091 0 0.137v-0.007 191.963c0 45.445 36.841 82.286 82.286 82.286v0zM868.571 557.714c45.445 0 82.286-36.841 82.286-82.286v0-192c0-0.020 0-0.043 0-0.066 0-90.89-73.681-164.571-164.571-164.571-23.783 0-46.388 5.045-66.803 14.123l1.048-0.416 2.048 3.73c7.826 14.848 14.153 30.61 18.688 47.141 13.23-6.103 28.709-9.662 45.019-9.662 60.594 0 109.714 49.121 109.714 109.714 0 0.002 0 0.005 0 0.007v0 192c0 0 0 0 0 0 0 15.136-12.259 27.408-27.39 27.429h-121.895c-5.198 21.494-15.657 40.054-29.951 54.894l0.036-0.037zM512 850.286c70.692 0 128-57.308 128-128s-57.308-128-128-128v0c-70.692 0-128 57.308-128 128s57.308 128 128 128v0zM804.681 813.714c60.594 0 109.714-49.121 109.714-109.714s-49.121-109.714-109.714-109.714v0c-60.594 0-109.714 49.121-109.714 109.714s49.121 109.714 109.714 109.714v0zM219.319 813.714c60.594 0 109.714-49.121 109.714-109.714s-49.121-109.714-109.714-109.714v0c-60.594 0-109.714 49.121-109.714 109.714s49.121 109.714 109.714 109.714v0zM512 795.429c-40.396 0-73.143-32.747-73.143-73.143s32.747-73.143 73.143-73.143v0c40.396 0 73.143 32.747 73.143 73.143s-32.747 73.143-73.143 73.143v0zM804.681 758.857c-30.297 0-54.857-24.56-54.857-54.857s24.56-54.857 54.857-54.857v0c30.297 0 54.857 24.56 54.857 54.857s-24.56 54.857-54.857 54.857v0zM219.319 758.857c-30.297 0-54.857-24.56-54.857-54.857s24.56-54.857 54.857-54.857v0c30.297 0 54.857 24.56 54.857 54.857s-24.56 54.857-54.857 54.857v0z" />
<glyph unicode="&#xe93b;" glyph-name="anksiyete" d="M850.773 573.44c-18.773 142.080-143.787 258.56-296.107 258.56-150.613 0-274.347-111.36-295.253-256l-82.347-148.48c-17.493-28.16 2.987-64.853 36.267-64.853h42.667v-85.333c0-46.933 38.4-85.333 85.333-85.333h42.667v-128h298.667v199.68c101.769 49.301 170.703 151.802 170.703 270.404 0 13.877-0.944 27.534-2.771 40.91l0.174-1.554zM533.333 362.667c-17.493 0-31.573 14.080-31.573 31.573s14.080 31.147 31.573 31.147 31.147-13.653 31.147-31.147-13.227-31.573-31.147-31.573zM608.427 546.987c-18.773-27.733-36.693-36.267-46.507-54.187-3.84-7.253-5.547-11.947-5.547-34.987h-45.227c0 12.373-1.707 32 7.68 49.493 11.947 21.76 35.413 34.56 48.64 53.76 14.080 20.053 6.4 58.027-34.133 58.027-26.453 0-39.253-20.053-44.8-36.693l-40.96 17.067c11.52 33.28 41.387 61.867 85.76 61.867 36.693 0 61.867-16.64 74.667-37.547 11.093-18.347 17.493-52.053 0.427-76.8z" />
<glyph unicode="&#xe93c;" glyph-name="testing" d="M917.333 960h-810.667c-58.91 0-106.667-47.756-106.667-106.667v0-810.667c0-58.91 47.756-106.667 106.667-106.667v0h810.667c58.91 0 106.667 47.756 106.667 106.667v0 810.667c0 58.91-47.756 106.667-106.667 106.667v0zM789.333 554.667h-192c-23.564 0-42.667 19.103-42.667 42.667s19.103 42.667 42.667 42.667v0h192c23.564 0 42.667-19.103 42.667-42.667s-19.103-42.667-42.667-42.667v0zM832 213.333c0-23.564-19.103-42.667-42.667-42.667v0h-192c-23.564 0-42.667 19.103-42.667 42.667s19.103 42.667 42.667 42.667v0h192c23.564 0 42.667-19.103 42.667-42.667v0zM482.133 721.067l-128-170.667c-7.261-9.672-18.366-16.118-31.005-17.058l-0.141-0.008c-0.934-0.073-2.022-0.114-3.119-0.114-11.777 0-22.44 4.772-30.161 12.488l-64 64c-7.753 7.753-12.548 18.463-12.548 30.293 0 23.661 19.181 42.841 42.841 42.841 11.83 0 22.541-4.795 30.293-12.548v0l29.013-29.44 98.56 131.413c7.867 10.41 20.223 17.067 34.133 17.067 23.564 0 42.667-19.103 42.667-42.667 0-9.653-3.206-18.558-8.611-25.707l0.078 0.107zM482.133 294.4l-128-170.667c-7.862-10.491-20.266-17.208-34.239-17.208-11.791 0-22.465 4.783-30.187 12.514v0l-64 64c-7.753 7.753-12.548 18.463-12.548 30.293 0 23.661 19.181 42.841 42.841 42.841 11.83 0 22.541-4.795 30.293-12.548v0l29.013-29.44 98.56 131.413c7.867 10.41 20.223 17.067 34.133 17.067 23.564 0 42.667-19.103 42.667-42.667 0-9.653-3.206-18.558-8.611-25.707l0.078 0.107z" />
<glyph unicode="&#xe93d;" glyph-name="quick-menu" d="M358.4 413.867c15.565 0 29.082 0 40.96-2.867 37.512-9.17 66.506-38.096 75.628-74.867l0.148-0.704c2.731-11.947 2.731-25.463 2.731-41.028v-170.667c0-15.565 0-29.082-2.799-40.96-9.192-37.544-38.175-66.551-75.005-75.629l-0.703-0.147c-11.878-2.731-25.395-2.731-40.96-2.731h-170.667c-15.565 0-29.082 0-40.96 2.799-37.472 9.225-66.414 38.168-75.493 74.936l-0.147 0.703c-2.867 11.947-2.867 25.463-2.867 41.028v170.667c0 15.565 0 29.082 2.867 40.96 9.214 37.455 38.128 66.392 74.867 75.492l0.704 0.148c11.947 2.867 25.463 2.867 41.028 2.867zM836.267 413.867c15.565 0 29.082 0 40.96-2.867 37.484-9.192 66.449-38.112 75.56-74.867l0.148-0.704c2.867-11.947 2.799-25.463 2.799-41.028v-170.667c0-15.565 0-29.082-2.799-40.96-9.203-37.5-38.152-66.471-74.936-75.561l-0.703-0.147c-11.947-2.867-25.463-2.799-41.028-2.799h-170.667c-15.565 0-29.082 0-40.96 2.799-37.472 9.225-66.414 38.168-75.493 74.936l-0.147 0.703c-2.867 11.947-2.867 25.463-2.867 41.028v170.667c0 15.565 0 29.082 2.867 40.96 9.214 37.455 38.128 66.392 74.867 75.492l0.704 0.148c11.947 2.867 25.463 2.867 41.028 2.867zM191.147 345.6c-20.958 0-25.463-0.205-28.399-0.956-12.52-3.068-22.191-12.739-25.21-25.025l-0.049-0.234c-0.683-2.935-0.956-7.509-0.956-28.399v-163.84c0-21.026 0.205-25.532 0.956-28.467 3.068-12.52 12.739-22.191 25.025-25.21l0.234-0.049c2.935-0.683 7.509-0.887 28.399-0.887h163.84c21.026 0 25.532 0.205 28.467 0.956 12.504 3.057 22.169 12.699 25.209 24.956l0.049 0.235c0.683 2.935 0.887 7.509 0.887 28.467v163.84c0 20.958-0.205 25.463-0.956 28.399-3.057 12.504-12.699 22.169-24.956 25.209l-0.235 0.049c-2.935 0.683-7.509 0.956-28.467 0.956zM669.013 345.6c-20.958 0-25.463-0.205-28.399-0.956-12.52-3.068-22.191-12.739-25.21-25.025l-0.049-0.234c-0.683-2.935-0.956-7.509-0.956-28.399v-163.84c0-21.026 0.205-25.532 0.956-28.467 3.068-12.52 12.739-22.191 25.025-25.21l0.234-0.049c2.935-0.683 7.509-0.887 28.399-0.887h163.84c21.026 0 25.532 0.205 28.467 0.956 12.504 3.057 22.169 12.699 25.209 24.956l0.049 0.235c0.683 2.935 0.887 7.509 0.887 28.467v163.84c0 20.958-0.273 25.463-0.956 28.399-3.057 12.504-12.699 22.169-24.956 25.209l-0.235 0.049c-2.935 0.683-7.509 0.956-28.467 0.956zM358.4 891.733c15.565 0 29.082 0 40.96-2.867 37.512-9.17 66.506-38.096 75.628-74.867l0.148-0.704c2.731-11.947 2.731-25.463 2.731-41.028v-170.667c0-15.565 0-29.082-2.799-40.96-9.192-37.544-38.175-66.551-75.005-75.629l-0.703-0.147c-11.878-2.731-25.395-2.731-40.96-2.731h-170.667c-15.565 0-29.082 0-40.96 2.799-37.516 9.214-66.494 38.192-75.561 75.005l-0.146 0.703c-2.799 11.878-2.799 25.395-2.799 40.96v170.667c0 15.565 0 29.082 2.867 40.96 9.214 37.455 38.128 66.392 74.867 75.492l0.704 0.148c11.947 2.867 25.463 2.867 41.028 2.867zM836.267 891.733c15.565 0 29.082 0 40.96-2.867 37.484-9.192 66.449-38.112 75.56-74.867l0.148-0.704c2.867-11.947 2.799-25.463 2.799-41.028v-170.667c0-15.565 0-29.082-2.799-40.96-9.192-37.544-38.175-66.551-75.005-75.629l-0.703-0.147c-11.878-2.731-25.395-2.731-40.96-2.731h-170.667c-15.565 0-29.082 0-40.96 2.799-37.516 9.214-66.494 38.192-75.561 75.005l-0.146 0.703c-2.799 11.878-2.799 25.395-2.799 40.96v170.667c0 15.565 0 29.082 2.867 40.96 9.214 37.455 38.128 66.392 74.867 75.492l0.704 0.148c11.947 2.867 25.463 2.867 41.028 2.867zM191.147 823.467c-20.958 0-25.463-0.205-28.399-0.956-12.52-3.068-22.191-12.739-25.21-25.025l-0.049-0.234c-0.683-2.935-0.956-7.509-0.956-28.399v-163.84c0-21.026 0.205-25.532 0.956-28.467 3.068-12.52 12.739-22.191 25.025-25.21l0.234-0.049c2.935-0.683 7.509-0.887 28.399-0.887h163.84c21.026 0 25.532 0.205 28.467 0.956 12.504 3.057 22.169 12.699 25.209 24.956l0.049 0.235c0.683 2.935 0.887 7.509 0.887 28.467v163.84c0 20.958-0.205 25.463-0.956 28.399-3.057 12.504-12.699 22.169-24.956 25.209l-0.235 0.049c-2.935 0.683-7.509 0.956-28.467 0.956zM669.013 823.467c-20.958 0-25.463-0.205-28.399-0.956-12.52-3.068-22.191-12.739-25.21-25.025l-0.049-0.234c-0.683-2.935-0.956-7.509-0.956-28.399v-163.84c0-21.026 0.205-25.532 0.956-28.467 3.068-12.52 12.739-22.191 25.025-25.21l0.234-0.049c2.935-0.683 7.509-0.887 28.399-0.887h163.84c21.026 0 25.532 0.205 28.467 0.956 12.504 3.057 22.169 12.699 25.209 24.956l0.049 0.235c0.683 2.935 0.887 7.509 0.887 28.467v163.84c0 20.958-0.273 25.463-0.956 28.399-3.057 12.504-12.699 22.169-24.956 25.209l-0.235 0.049c-2.935 0.683-7.509 0.956-28.467 0.956z" />
<glyph unicode="&#xe93e;" glyph-name="podcast" d="M405.333 298.667c0 51.2 42.667 85.333 106.667 85.333s106.667-34.133 106.667-85.333c0-106.667-21.333-320-106.667-320s-106.667 213.333-106.667 320zM138.667 490.667c0.061 206.141 167.184 373.227 373.333 373.227 206.186 0 373.333-167.147 373.333-373.333 0-147.833-85.925-275.597-210.558-336.074l-2.221-0.972c-4.192-29.971-9.189-55.417-15.408-80.38l1.115 5.286c169.6 60.16 291.072 221.995 291.072 412.245 0 241.493-195.84 437.333-437.333 437.333s-437.333-195.84-437.333-437.333c0-190.251 121.472-352.128 291.072-412.288l-1.28 5.333c-4.541 18.010-9.092 41.675-12.531 65.698l-0.482 4.105c-126.853 61.449-212.779 189.213-212.779 337.046 0 0.037 0 0.075 0 0.112v-0.006zM288 490.667c0.007 123.707 100.293 223.988 224 223.988 123.712 0 224-100.288 224-224 0-58.457-22.393-111.685-59.068-151.572l0.146 0.16q5.547-19.328 5.589-40.576c0-12.288-0.256-25.984-0.853-40.661 71.992 52.992 118.187 137.406 118.187 232.61 0 159.058-128.942 288-288 288s-288-128.942-288-288c0-95.204 46.195-179.618 117.392-232.051l0.795-0.559c-0.597 14.677-0.853 28.373-0.853 40.661q0.043 21.248 5.589 40.576c-36.526 39.608-58.923 92.728-58.923 151.079 0 0.121 0 0.242 0 0.363v-0.019zM416 522.667c0-53.019 42.981-96 96-96s96 42.981 96 96v0c0 53.019-42.981 96-96 96s-96-42.981-96-96v0z" />
</font>
</defs>
</svg>
