<svg width="453" height="359" viewBox="0 0 453 359" fill="none" xmlns="http://www.w3.org/2000/svg">
<g clip-path="url(#clip0_5801_9786)">
<path fill-rule="evenodd" clip-rule="evenodd" d="M35.2194 357.255C35.3231 358.195 36.1228 358.896 37.0685 358.902L169.064 359.783C170.01 359.789 170.819 359.099 170.935 358.16C171.261 355.529 171.437 352.852 171.455 350.137C171.707 312.402 141.321 281.608 103.586 281.357C65.852 281.105 35.0581 311.491 34.8064 349.225C34.7883 351.941 34.9289 354.62 35.2194 357.255Z" fill="#6FE1C4"/>
<path d="M110.554 357.542L90.7976 305.093" stroke="#90F1D8" stroke-width="4.74617" stroke-linecap="round"/>
<path d="M107.429 348.74L128.632 326.64" stroke="#90F1D8" stroke-width="4.74617" stroke-linecap="round"/>
<path d="M76.1636 319.747L97.5564 325.501" stroke="#90F1D8" stroke-width="4.74617" stroke-linecap="round"/>
<path fill-rule="evenodd" clip-rule="evenodd" d="M-29.5477 358.431L60.7663 359.033C61.0784 356.929 61.247 354.777 61.2616 352.588C61.4277 327.68 41.5967 307.303 16.7993 306.688L13.6133 317.932L10.836 306.924C-3.15273 308.392 -15.2749 316.19 -22.5901 327.418L-15.3356 336.419L-26.0481 333.779C-28.5214 339.345 -29.9138 345.5 -29.957 351.98C-29.9716 354.168 -29.8318 356.322 -29.5477 358.431Z" fill="#90F1D8"/>
<path d="M135.598 261.894L142.413 261.894L144.424 367.136H133.237L135.598 261.894Z" fill="#E8D4B4"/>
<path d="M169.706 244.704C169.706 261.733 155.901 275.538 138.872 275.538C121.843 275.538 108.038 261.733 108.038 244.704C108.038 227.676 121.843 213.871 138.872 213.871C155.901 213.871 169.706 227.676 169.706 244.704Z" fill="#90F1D8"/>
<path d="M76.1729 214.01L65.6705 214.01L62.5708 376.199H79.8113L76.1729 214.01Z" fill="#DAC199"/>
<path fill-rule="evenodd" clip-rule="evenodd" d="M71.1259 235.036C44.8825 235.036 23.608 213.761 23.608 187.518C23.608 179.589 25.5498 172.115 28.9837 165.543C41.6453 165.431 51.7099 163.647 51.7099 161.462C51.7099 159.591 44.3327 158.014 34.2646 157.529C42.9777 146.832 56.254 140 71.1259 140C97.3694 140 118.644 161.275 118.644 187.518C118.644 213.761 97.3694 235.036 71.1259 235.036Z" fill="#6FE1C4"/>
<path d="M23.7498 251.684L31.0026 251.684L33.1433 363.691H21.2371L23.7498 251.684Z" fill="#E8D4B4"/>
<path fill-rule="evenodd" clip-rule="evenodd" d="M57.595 245.865C59.177 242.019 60.0495 237.807 60.0495 233.39C60.0495 215.267 45.3574 200.574 27.2339 200.574C9.11032 200.574 -5.58173 215.267 -5.58173 233.39C-5.58173 251.514 9.11032 266.206 27.2339 266.206C38.4209 266.206 48.3005 260.608 54.2243 252.06C46.8793 251.444 41.9855 250.34 41.9855 249.082C41.9855 247.639 48.4146 246.401 57.595 245.865Z" fill="#90F1D8"/>
<path d="M355.262 250.702L363.734 250.702L366.234 381.538H352.327L355.262 250.702Z" fill="#E8D4B4"/>
<path fill-rule="evenodd" clip-rule="evenodd" d="M359.332 267.664C380.502 267.664 397.664 250.502 397.664 229.332C397.664 228.581 397.642 227.835 397.6 227.094C387.746 226.941 380.027 225.53 380.027 223.811C380.027 222.148 387.256 220.773 396.653 220.547C392.681 203.611 377.479 191 359.332 191C338.162 191 321 208.162 321 229.332C321 250.502 338.162 267.664 359.332 267.664Z" fill="#90F1D8"/>
<path fill-rule="evenodd" clip-rule="evenodd" d="M435.669 361.506L333.901 362.185C333.549 359.813 333.359 357.388 333.343 354.921C333.153 326.537 356.01 303.374 384.394 303.185L384.528 303.184L386.858 323.851L390.337 303.485C406.046 305.186 419.65 313.975 427.86 326.605L414.088 338.685L432.197 334.822C434.689 340.802 436.085 347.357 436.131 354.236C436.147 356.702 435.99 359.13 435.669 361.506Z" fill="#6FE1C4"/>
<path fill-rule="evenodd" clip-rule="evenodd" d="M237.381 358.205L313.511 358.713C313.774 356.939 313.916 355.124 313.928 353.279C314.07 332.046 296.972 314.718 275.739 314.576C262.192 314.486 250.236 321.413 243.317 331.953L252.467 341.226L239.9 338.433C238.085 342.856 237.07 347.693 237.036 352.766C237.024 354.612 237.142 356.428 237.381 358.205Z" fill="#90F1D8"/>
<path d="M274.355 356.509L278.676 327.891" stroke="#6FE1C4" stroke-width="3.79693" stroke-linecap="round"/>
<path d="M276.605 341.01L266.075 329.962" stroke="#6FE1C4" stroke-width="3.79693" stroke-linecap="round"/>
<path d="M292.001 344.733L275.632 350.188" stroke="#6FE1C4" stroke-width="3.79693" stroke-linecap="round"/>
<path d="M305.965 273.062L312.693 273.062L314.679 376.974H303.634L305.965 273.062Z" fill="#DAC199"/>
<path d="M339.642 256.09C339.642 272.903 326.012 286.533 309.198 286.533C292.385 286.533 278.754 272.903 278.754 256.09C278.754 239.276 292.385 225.646 309.198 225.646C326.012 225.646 339.642 239.276 339.642 256.09Z" fill="#6FE1C4"/>
<g clip-path="url(#clip1_5801_9786)">
<path d="M346.781 19.444C347.892 19.1402 349.003 19.3428 349.962 20.001L351.073 20.8112C351.982 21.4695 352.537 22.4822 352.638 23.6468C352.688 24.7608 352.234 25.8748 351.376 26.5837L350.012 27.7483C349.81 27.9002 349.659 28.1027 349.558 28.3053L349.305 28.8623C348.952 29.6725 348.498 30.4826 347.942 31.2422L343.903 36.1538L349.962 37.6223L350.063 37.6729C350.921 37.9767 351.78 38.3312 352.537 38.7363L353.092 39.0401C353.294 39.1413 353.547 39.2426 353.85 39.2426L355.617 39.3439C356.728 39.4452 357.738 40.0022 358.394 40.9642C359 41.8757 359.151 43.0403 358.849 44.1037L358.445 45.4202C358.091 46.4835 357.334 47.3444 356.273 47.7494C355.213 48.1545 354.052 48.0532 353.092 47.4456L351.527 46.5342C351.325 46.3823 351.073 46.3316 350.871 46.281L350.265 46.2304C349.356 46.1291 348.447 45.9265 347.589 45.6734L342.186 43.3948C340.065 42.4833 337.692 42.4833 334.865 43.3441C334.006 43.5973 332.29 44.1543 332.29 44.1543L327.089 45.9265L324.564 38.3312L329.815 36.7108C329.815 36.7108 331.532 36.1032 332.39 35.7994C335.168 34.7867 337.086 33.3182 338.197 31.3434L341.075 26.3811V26.3305C341.631 25.6216 342.237 24.9127 342.893 24.3051L343.347 23.8493C343.499 23.6974 343.65 23.4949 343.751 23.1911L344.408 21.5707C344.812 20.558 345.72 19.7478 346.781 19.444Z" fill="#733E00"/>
<path d="M283.312 64.4087C283.312 64.4087 282.352 53.6739 285.281 47.6989C285.281 47.6989 275.788 51.5978 275.94 65.7758L283.312 64.4087Z" fill="#E5C500"/>
<path d="M327.745 8.30427C330.371 11.2918 332.542 14.9376 332.744 18.9378C332.896 22.2798 332.542 25.6217 331.128 28.6599C330.494 30.0469 329.831 31.412 329.064 32.8526C329.44 33.1704 329.807 33.5132 330.169 33.8756C330.288 33.9958 330.408 34.1477 330.553 34.3313C330.591 34.3797 330.631 34.4304 330.673 34.4832C332.188 36.6099 332.845 39.2936 332.592 41.9267L331.734 50.2309C331.683 50.6867 331.633 51.0918 331.532 51.5475C329.613 59.7505 326.685 71.8018 324.917 76.4603C321.231 86.0811 313.607 95.9551 303.105 94.436C303.054 94.3854 303.004 94.3854 302.953 94.3854C302.903 94.3854 302.865 94.3727 302.827 94.3601C302.789 94.3474 302.751 94.3347 302.701 94.3347C292.804 92.2587 285.331 83.9038 284.271 73.8272C284.22 73.726 284.22 73.3715 284.22 73.3209L283.166 63.3339C212.188 93.6688 213.582 200.011 213.582 200.011L213.58 200.008L213.582 200.012C213.582 253.179 210.704 342.855 210.704 342.855C210.704 351.565 207.068 355.008 198.384 355.008C198.384 355.008 190.507 356.831 189.749 350.4L182.176 265.838C181.873 260.977 178.995 258.698 175.056 258.698H160.363C156.424 258.698 153.243 261.889 153.243 265.838L149.507 344.324C149.507 353.033 146.225 358.856 137.54 358.856C136.639 358.856 135.828 358.867 135.098 358.877C128.796 358.962 128.553 358.965 128.553 351.159L122.241 264.218C121.989 260.521 121.837 256.825 121.837 253.129V216.519C121.837 212.468 123.099 208.569 125.372 205.278H120.322C114.162 205.278 109.113 210.291 109.113 216.519V249.736C110.375 250.951 98.4087 251.407 99.873 249.888V216.721C99.873 205.43 109.063 196.214 120.322 196.214H136.985C155.659 196.214 180.011 175.721 186.057 160.477L186.013 160.414C207.986 56.9869 266.506 36.0202 294.088 31.9737C299.483 30.9381 304.96 30.3671 310.46 30.2725C309.642 28.9015 309.044 27.5356 308.811 26.2293C307.902 21.1151 308.861 17.4694 311.184 12.8615C312.528 10.1357 314.346 7.73231 316.158 5.33699C317.477 3.59406 318.792 1.85541 319.919 0L320.407 0.507767C322.902 3.10612 325.613 5.92821 327.745 8.30427Z" fill="#FFD600"/>
<path fill-rule="evenodd" clip-rule="evenodd" d="M224.084 96.1077C222.418 96.1077 221.004 97.4748 221.004 99.1964C221.004 100.867 222.367 102.235 224.084 102.235C225.801 102.235 227.113 100.867 227.113 99.1964C227.164 97.4748 225.801 96.1077 224.084 96.1077Z" fill="#C78800"/>
<path fill-rule="evenodd" clip-rule="evenodd" d="M187.679 153.123C188.235 153.832 189.093 154.288 190.103 154.288C191.769 154.288 193.132 152.92 193.132 151.249C193.132 149.528 191.769 148.161 190.103 148.161C189.648 148.161 189.245 148.262 188.891 148.414C188.437 149.983 188.083 151.553 187.679 153.123Z" fill="#C78800"/>
<path fill-rule="evenodd" clip-rule="evenodd" d="M205.25 121.981C203.029 121.981 201.211 123.804 201.211 126.032C201.211 128.26 203.029 130.083 205.25 130.083C207.472 130.083 209.29 128.26 209.29 126.032C209.29 123.804 207.523 121.981 205.25 121.981Z" fill="#C78800"/>
<path fill-rule="evenodd" clip-rule="evenodd" d="M215.45 139.603C213.229 139.603 211.411 141.426 211.411 143.654C211.411 145.882 213.229 147.705 215.45 147.705C217.672 147.705 219.49 145.882 219.49 143.654C219.49 141.426 217.672 139.603 215.45 139.603Z" fill="#C78800"/>
<path fill-rule="evenodd" clip-rule="evenodd" d="M225.902 71.5485C226.71 72.865 228.123 73.7765 229.79 73.7765C232.314 73.7765 234.334 71.7511 234.334 69.2193C234.334 67.3964 233.274 65.8267 231.708 65.0671C229.739 67.0926 227.82 69.2699 225.902 71.5485Z" fill="#C78800"/>
<path fill-rule="evenodd" clip-rule="evenodd" d="M221.711 121.475C221.711 124.463 223.933 126.995 226.811 127.4C228.174 123.855 229.689 120.26 231.355 116.716C230.346 115.905 229.083 115.45 227.669 115.45C224.387 115.45 221.711 118.133 221.711 121.475Z" fill="#C78800"/>
<path fill-rule="evenodd" clip-rule="evenodd" d="M237.818 95.4493C237.818 97.4748 239.081 99.1964 240.797 99.9559C242.514 97.3735 244.382 94.8417 246.301 92.3605C245.392 91.2972 244.079 90.6389 242.615 90.6389C239.989 90.5883 237.818 92.7656 237.818 95.4493Z" fill="#C78800"/>
<path fill-rule="evenodd" clip-rule="evenodd" d="M191.264 187.504C193.839 184.922 198.03 185.023 200.504 187.808C202.726 190.34 202.423 194.239 200.05 196.619L192.526 204.163C191.82 204.872 190.709 204.872 190.052 204.163L182.529 196.619C180.156 194.239 179.853 190.34 182.075 187.808C184.498 185.023 188.74 184.922 191.264 187.504Z" fill="#C78800"/>
<path fill-rule="evenodd" clip-rule="evenodd" d="M171.724 198.289C169.856 198.289 168.341 199.808 168.341 201.682C168.341 203.556 169.856 205.075 171.724 205.075C173.592 205.075 175.107 203.556 175.107 201.682C175.107 199.808 173.592 198.289 171.724 198.289Z" fill="#C78800"/>
<path fill-rule="evenodd" clip-rule="evenodd" d="M139.106 198.644C137.237 198.644 135.723 200.163 135.723 202.036C135.723 203.91 137.237 205.429 139.106 205.429C140.974 205.429 142.489 203.91 142.489 202.036C142.539 200.214 141.024 198.644 139.106 198.644Z" fill="#C78800"/>
<path fill-rule="evenodd" clip-rule="evenodd" d="M154.455 204.872C151.123 204.872 148.447 207.556 148.447 210.898C148.447 214.189 151.123 216.873 154.455 216.873C157.788 216.873 160.413 214.189 160.413 210.898C160.413 207.607 157.737 204.872 154.455 204.872Z" fill="#C78800"/>
<path fill-rule="evenodd" clip-rule="evenodd" d="M152.99 192.163C153.95 194.138 156.02 195.505 158.342 195.505C161.675 195.505 164.301 192.822 164.301 189.48C164.301 188.264 163.947 187.1 163.291 186.138C160.009 188.467 156.525 190.543 152.99 192.163Z" fill="#C78800"/>
<path fill-rule="evenodd" clip-rule="evenodd" d="M171.219 179.909C171.471 181.884 173.188 183.403 175.208 183.403C177.43 183.403 179.247 181.58 179.247 179.352C179.247 177.327 177.783 175.656 175.864 175.352C174.4 176.922 172.835 178.441 171.219 179.909Z" fill="#C78800"/>
<path fill-rule="evenodd" clip-rule="evenodd" d="M190.305 345.642L208.735 341.996C210.047 341.743 211.31 342.503 211.714 343.769L215.45 355.466C216.006 357.136 214.743 358.858 212.976 358.858H189.85C188.285 358.858 187.073 357.491 187.275 355.921L188.184 347.87C188.336 346.756 189.194 345.845 190.305 345.642Z" fill="#C78800"/>
<path fill-rule="evenodd" clip-rule="evenodd" d="M129.26 345.642L147.69 341.996C149.002 341.743 150.265 342.503 150.669 343.769L154.405 355.466C154.96 357.136 153.698 358.858 151.931 358.858H128.856C127.291 358.858 126.079 357.491 126.281 355.921L127.19 347.87C127.341 346.756 128.149 345.845 129.26 345.642Z" fill="#C78800"/>
<path d="M109.063 249.788C109.063 249.788 118.454 261.738 115.172 264.472C111.89 267.156 108.053 260.219 108.053 260.219C108.053 260.219 112.395 273.182 107.447 274.346C102.498 275.511 101.489 261.687 101.489 261.687C101.489 261.687 98.1057 269.89 94.5207 267.207C90.9357 264.523 99.7214 249.838 99.7214 249.838H109.063V249.788Z" fill="#C78800"/>
<path d="M241.858 72.9147C241.706 72.0539 242.009 71.1931 242.565 70.5349L243.272 69.7753C243.878 69.1171 244.685 68.8132 245.544 68.8639C246.402 68.9145 247.21 69.3702 247.665 70.1298L248.422 71.2944C248.523 71.4463 248.674 71.5982 248.826 71.6995L249.23 71.9527C249.836 72.3071 250.391 72.7628 250.896 73.2186L254.229 76.7631L255.945 72.2565L255.996 72.2058C256.299 71.5982 256.652 70.9906 257.056 70.383L257.359 69.9779C257.46 69.826 257.561 69.6741 257.561 69.4209L257.813 68.1043C257.965 67.2435 258.52 66.5346 259.278 66.1296C260.035 65.7245 260.944 65.7245 261.752 66.0789L262.711 66.5346C263.519 66.8891 264.075 67.598 264.277 68.4588C264.478 69.3196 264.277 70.1804 263.772 70.8893L262.913 72.0033C262.812 72.1552 262.711 72.3071 262.661 72.5097L262.56 72.9654C262.408 73.6237 262.156 74.3325 261.903 74.9402L259.631 78.8391C258.773 80.3582 258.52 82.1811 258.874 84.4597C258.975 85.118 259.278 86.5358 259.278 86.5358L260.136 90.6879L254.077 91.9032L253.37 87.7004C253.37 87.7004 253.067 86.3332 252.916 85.6243C252.411 83.3964 251.502 81.776 250.088 80.7127L246.604 78.029L246.503 77.9783C245.998 77.5226 245.544 76.9656 245.14 76.4086L244.837 76.0035C244.736 75.8516 244.584 75.7503 244.383 75.6491L243.221 74.9908C242.514 74.5351 242.009 73.7756 241.858 72.9147Z" fill="#733E00"/>
<path d="M231.961 87.548C234.89 86.5859 238.121 86.1808 240.999 87.2948C243.058 88.0854 245.04 89.1427 246.65 90.665C247.89 89.4572 249.474 88.7122 251.199 88.4591L257.46 87.5476C257.763 87.497 258.116 87.4464 258.47 87.4464C264.933 87.2945 274.476 87.1425 278.263 87.5476C286.14 88.4084 294.976 92.2061 295.784 100.308V100.612C296.137 108.46 291.391 115.651 284.12 118.385C284.095 118.385 284.019 118.41 283.943 118.435C283.868 118.461 283.792 118.486 283.767 118.486L276.849 121.119L268.017 124.454L243.827 243.861C243.827 282.344 241.757 347.36 241.757 347.36C241.757 353.639 239.131 356.171 232.819 356.171C232.819 356.171 227.114 357.487 226.558 352.829L221.105 291.56C220.853 288.015 218.783 286.395 215.955 286.395H205.301C202.474 286.395 200.151 288.724 200.151 291.56L197.424 348.424C197.424 354.702 195.051 358.956 188.79 358.956C188.157 358.956 187.586 358.963 187.07 358.97C182.481 359.028 182.277 359.03 182.277 353.386L177.682 290.395C177.48 287.711 177.379 285.028 177.379 282.344V255.811C177.379 252.874 178.288 250.038 179.954 247.658H176.318C171.825 247.658 168.189 251.304 168.189 255.811V279.863C169.048 280.774 160.363 281.078 161.423 280.015V255.963C161.423 247.81 168.088 241.126 176.217 241.126H188.285C202.675 241.126 221.661 224.366 224.488 213.226C226.938 203.576 243.936 128.234 248.439 108.249L247.298 105.21C244.324 106.204 241.113 106.988 238.778 106.435C237.616 106.131 236.556 105.777 235.647 105.321L235.697 103.296L234.334 104.562C232.819 103.6 231.507 102.283 230.093 100.612C228.616 98.8695 227.504 96.877 226.387 94.8735C225.556 93.3841 224.721 91.8884 223.731 90.4849C224.76 90.1218 225.832 89.7299 226.901 89.339C228.665 88.6943 230.421 88.0524 231.961 87.548Z" fill="#F9B104"/>
<path d="M266.398 97.6251C265.439 97.5238 264.479 97.7263 263.772 98.3846C263.166 98.9416 262.813 99.7011 262.762 100.511C262.712 101.321 261.652 101.625 261.248 100.967C261.248 100.967 261.248 100.916 261.197 100.916C260.389 99.5492 260.44 97.7263 261.349 96.4098C262.914 94.1818 265.994 94.0299 267.812 95.8528C268.064 96.106 268.266 96.4098 268.418 96.663C268.821 97.3719 268.115 98.1821 267.408 97.8782C267.155 97.777 266.802 97.6757 266.398 97.6251Z" fill="#373A3B"/>
<path d="M267.963 124.513C267.963 124.513 259.631 124.361 255.289 121.576C255.289 121.576 259.127 128.158 266.852 129.981C266.902 129.931 267.963 124.513 267.963 124.513Z" fill="#D39805"/>
<path fill-rule="evenodd" clip-rule="evenodd" d="M226.913 349.335L240.243 346.702C241.202 346.5 242.111 347.057 242.414 347.968L245.09 356.424C245.494 357.64 244.585 358.906 243.272 358.906H226.559C225.448 358.906 224.539 357.893 224.691 356.779L225.347 350.956C225.499 350.146 226.105 349.487 226.913 349.335Z" fill="#B67A12"/>
<path fill-rule="evenodd" clip-rule="evenodd" d="M182.731 349.335L196.061 346.702C197.021 346.5 197.93 347.057 198.233 347.968L200.959 356.475C201.363 357.69 200.454 358.956 199.142 358.956H182.429C181.318 358.956 180.409 357.943 180.56 356.829L181.217 351.006C181.318 350.146 181.924 349.487 182.731 349.335Z" fill="#B67A12"/>
<path fill-rule="evenodd" clip-rule="evenodd" d="M242.06 172.313C240.848 172.313 239.838 173.326 239.838 174.541C239.838 175.756 240.848 176.769 242.06 176.769C243.271 176.769 244.281 175.756 244.281 174.541C244.231 173.326 243.271 172.313 242.06 172.313Z" fill="#C07812"/>
<path fill-rule="evenodd" clip-rule="evenodd" d="M225.296 209.732C225.7 210.34 226.357 210.745 227.165 210.745C228.376 210.745 229.386 209.732 229.386 208.517C229.386 207.302 228.376 206.289 227.165 206.289C226.761 206.289 226.407 206.39 226.054 206.593C225.751 207.758 225.549 208.821 225.296 209.732Z" fill="#C07812"/>
<path fill-rule="evenodd" clip-rule="evenodd" d="M236.102 188.213C234.486 188.213 233.173 189.529 233.173 191.15C233.173 192.77 234.486 194.086 236.102 194.086C237.718 194.086 239.03 192.77 239.03 191.15C239.03 189.529 237.718 188.213 236.102 188.213Z" fill="#C07812"/>
<path fill-rule="evenodd" clip-rule="evenodd" d="M244.988 201.429C243.372 201.429 242.059 202.746 242.059 204.366C242.059 205.987 243.372 207.303 244.988 207.303C246.604 207.303 247.917 205.987 247.917 204.366C247.866 202.746 246.604 201.429 244.988 201.429Z" fill="#C07812"/>
<path fill-rule="evenodd" clip-rule="evenodd" d="M236.657 160.261C237.263 161.071 238.222 161.628 239.333 161.628C241.151 161.628 242.615 160.16 242.615 158.337C242.615 156.514 241.151 155.046 239.333 155.046C238.778 155.046 238.222 155.198 237.768 155.451" fill="#C07812"/>
<path fill-rule="evenodd" clip-rule="evenodd" d="M248.725 188.162C248.725 190.542 250.643 192.517 253.067 192.517C253.471 192.517 253.875 192.466 254.228 192.365L255.743 184.77C254.986 184.162 254.077 183.808 253.016 183.808C250.643 183.808 248.725 185.782 248.725 188.162Z" fill="#C07812"/>
<path fill-rule="evenodd" clip-rule="evenodd" d="M255.34 167.857C255.34 169.68 256.703 171.148 258.47 171.351L259.833 164.515C259.53 164.414 259.177 164.363 258.824 164.363C256.905 164.363 255.34 165.933 255.34 167.857Z" fill="#C07812"/>
<path fill-rule="evenodd" clip-rule="evenodd" d="M227.619 234.747C229.487 232.873 232.517 232.974 234.284 235C235.9 236.823 235.698 239.658 233.981 241.38L228.528 246.849C228.023 247.355 227.215 247.355 226.71 246.849L221.257 241.38C219.54 239.658 219.338 236.823 220.954 235C222.721 232.974 225.801 232.924 227.619 234.747Z" fill="#C07812"/>
<path fill-rule="evenodd" clip-rule="evenodd" d="M213.481 242.595C212.118 242.595 211.007 243.709 211.007 245.076C211.007 246.444 212.118 247.558 213.481 247.558C214.844 247.558 215.955 246.444 215.955 245.076C215.955 243.709 214.844 242.595 213.481 242.595Z" fill="#C07812"/>
<path fill-rule="evenodd" clip-rule="evenodd" d="M189.851 242.848C188.488 242.848 187.377 243.962 187.377 245.329C187.377 246.696 188.488 247.81 189.851 247.81C191.215 247.81 192.325 246.696 192.325 245.329C192.325 243.962 191.215 242.848 189.851 242.848Z" fill="#C07812"/>
<path fill-rule="evenodd" clip-rule="evenodd" d="M200.959 247.355C198.535 247.355 196.616 249.279 196.616 251.71C196.616 254.09 198.535 256.065 200.959 256.065C203.382 256.065 205.301 254.09 205.301 251.71C205.301 249.33 203.382 247.355 200.959 247.355Z" fill="#C07812"/>
<path fill-rule="evenodd" clip-rule="evenodd" d="M199.899 238.139C200.606 239.557 202.07 240.57 203.787 240.57C206.21 240.57 208.129 238.645 208.129 236.215C208.129 235.303 207.877 234.493 207.422 233.784C204.999 235.506 202.474 236.974 199.899 238.139Z" fill="#C07812"/>
<path fill-rule="evenodd" clip-rule="evenodd" d="M213.077 229.277C213.279 230.695 214.491 231.809 216.006 231.809C217.622 231.809 218.934 230.492 218.934 228.872C218.934 227.404 217.874 226.188 216.46 225.986C215.4 227.1 214.289 228.214 213.077 229.277Z" fill="#C07812"/>
<path d="M168.24 279.864C168.24 279.864 175.107 288.674 172.734 290.649C170.31 292.624 167.533 287.509 167.533 287.509C167.533 287.509 170.765 297.029 167.079 297.89C163.443 298.751 162.736 288.623 162.736 288.623C162.736 288.623 160.262 294.649 157.637 292.674C155.011 290.7 161.474 279.914 161.474 279.914H168.24V279.864Z" fill="#C07812"/>
<path d="M316.132 58.1305C316.587 56.9659 316.637 55.7 316.031 54.586C315.526 53.6239 314.668 52.915 313.709 52.6112C312.699 52.2568 312.648 50.839 313.658 50.5352H313.709C315.728 49.9275 317.95 50.5858 319.313 52.2061C321.585 54.8898 320.828 58.8394 317.9 60.5104C317.496 60.7129 317.092 60.9155 316.637 61.0168C315.627 61.2699 314.87 60.1559 315.476 59.3458C315.728 58.9913 315.93 58.6369 316.132 58.1305Z" fill="#373A3B"/>
</g>
</g>
<defs>
<clipPath id="clip0_5801_9786">
<rect width="453" height="359" fill="white"/>
</clipPath>
<clipPath id="clip1_5801_9786">
<rect width="265" height="359" fill="white" transform="matrix(-1 0 0 1 359 0)"/>
</clipPath>
</defs>
</svg>
